<svg width="1440" height="966" viewBox="0 0 1440 966" fill="none" xmlns="http://www.w3.org/2000/svg">
<g clip-path="url(#clip0_3743_21134)">
<rect width="1440" height="966" fill="white"/>
<path fill-rule="evenodd" clip-rule="evenodd" d="M1152.07 1289.51C1500.31 1319.64 1593.17 930.153 1881.54 903.18C2039.39 888.414 2362.74 904.919 2257.54 353.547C2188.34 -2.17505 1845.08 -28.7999 1543.13 218.281C1451.48 276.201 1371 279.114 1278.78 256.684C1186.55 234.255 1044.64 82.4272 832.131 86.3165C192.624 98.0219 -152.061 1176.66 1152.07 1289.51Z" fill="#9CFFF4"/>
<path d="M659.264 118.32V107.952L678.912 79.92H692.672V107.44H697.6V118.32H692.672V126H680V118.32H659.264ZM680.96 94.064L672.128 107.44H680.96V94.064ZM702.746 101.936C702.746 94.5973 704.239 88.816 707.226 84.592C710.213 80.368 714.906 78.256 721.306 78.256C727.706 78.256 732.399 80.368 735.386 84.592C738.415 88.816 739.93 94.5973 739.93 101.936C739.93 109.36 738.437 115.184 735.45 119.408C732.463 123.632 727.749 125.744 721.306 125.744C714.863 125.744 710.149 123.632 707.162 119.408C704.218 115.184 702.746 109.36 702.746 101.936ZM727.514 101.936C727.514 98.096 727.109 95.1733 726.298 93.168C725.487 91.12 723.823 90.096 721.306 90.096C718.789 90.096 717.125 91.12 716.314 93.168C715.503 95.1733 715.098 98.096 715.098 101.936C715.098 105.861 715.482 108.848 716.25 110.896C717.061 112.901 718.746 113.904 721.306 113.904C723.866 113.904 725.53 112.901 726.298 110.896C727.109 108.848 727.514 105.861 727.514 101.936ZM745.577 118.32V107.952L765.225 79.92H778.985V107.44H783.913V118.32H778.985V126H766.313V118.32H745.577ZM767.273 94.064L758.441 107.44H767.273V94.064Z" fill="black"/>
<path d="M592.072 154.872L585.052 180H579.112L574.396 162.108L569.464 180L563.56 180.036L556.792 154.872H562.192L566.62 174.384L571.732 154.872H577.348L582.172 174.276L586.636 154.872H592.072ZM613.903 169.596C613.903 170.316 613.855 170.964 613.759 171.54H599.179C599.299 172.98 599.803 174.108 600.691 174.924C601.579 175.74 602.671 176.148 603.967 176.148C605.839 176.148 607.171 175.344 607.963 173.736H613.399C612.823 175.656 611.719 177.24 610.087 178.488C608.455 179.712 606.451 180.324 604.075 180.324C602.155 180.324 600.427 179.904 598.891 179.064C597.379 178.2 596.191 176.988 595.327 175.428C594.487 173.868 594.067 172.068 594.067 170.028C594.067 167.964 594.487 166.152 595.327 164.592C596.167 163.032 597.343 161.832 598.855 160.992C600.367 160.152 602.107 159.732 604.075 159.732C605.971 159.732 607.663 160.14 609.151 160.956C610.663 161.772 611.827 162.936 612.643 164.448C613.483 165.936 613.903 167.652 613.903 169.596ZM608.683 168.156C608.659 166.86 608.191 165.828 607.279 165.06C606.367 164.268 605.251 163.872 603.931 163.872C602.683 163.872 601.627 164.256 600.763 165.024C599.923 165.768 599.407 166.812 599.215 168.156H608.683ZM618.59 154.872H623.882L619.994 163.944H616.538L618.59 154.872ZM632.536 163.152C633.184 162.096 634.024 161.268 635.056 160.668C636.112 160.068 637.312 159.768 638.656 159.768V165.06H637.324C635.74 165.06 634.54 165.432 633.724 166.176C632.932 166.92 632.536 168.216 632.536 170.064V180H627.496V160.056H632.536V163.152ZM660.59 169.596C660.59 170.316 660.542 170.964 660.446 171.54H645.866C645.986 172.98 646.49 174.108 647.378 174.924C648.266 175.74 649.358 176.148 650.654 176.148C652.526 176.148 653.858 175.344 654.65 173.736H660.086C659.51 175.656 658.406 177.24 656.774 178.488C655.142 179.712 653.138 180.324 650.762 180.324C648.842 180.324 647.114 179.904 645.578 179.064C644.066 178.2 642.878 176.988 642.014 175.428C641.174 173.868 640.754 172.068 640.754 170.028C640.754 167.964 641.174 166.152 642.014 164.592C642.854 163.032 644.03 161.832 645.542 160.992C647.054 160.152 648.794 159.732 650.762 159.732C652.658 159.732 654.35 160.14 655.838 160.956C657.35 161.772 658.514 162.936 659.33 164.448C660.17 165.936 660.59 167.652 660.59 169.596ZM655.37 168.156C655.346 166.86 654.878 165.828 653.966 165.06C653.054 164.268 651.938 163.872 650.618 163.872C649.37 163.872 648.314 164.256 647.45 165.024C646.61 165.768 646.094 166.812 645.902 168.156H655.37ZM700.495 160.056L694.663 180H689.227L685.591 166.068L681.955 180H676.483L670.615 160.056H675.727L679.255 175.248L683.071 160.056H688.399L692.143 175.212L695.671 160.056H700.495ZM712.078 180.324C710.158 180.324 708.43 179.904 706.894 179.064C705.358 178.2 704.146 176.988 703.258 175.428C702.394 173.868 701.962 172.068 701.962 170.028C701.962 167.988 702.406 166.188 703.294 164.628C704.206 163.068 705.442 161.868 707.002 161.028C708.562 160.164 710.302 159.732 712.222 159.732C714.142 159.732 715.882 160.164 717.442 161.028C719.002 161.868 720.226 163.068 721.114 164.628C722.026 166.188 722.482 167.988 722.482 170.028C722.482 172.068 722.014 173.868 721.078 175.428C720.166 176.988 718.918 178.2 717.334 179.064C715.774 179.904 714.022 180.324 712.078 180.324ZM712.078 175.932C712.99 175.932 713.842 175.716 714.634 175.284C715.45 174.828 716.098 174.156 716.578 173.268C717.058 172.38 717.298 171.3 717.298 170.028C717.298 168.132 716.794 166.68 715.786 165.672C714.802 164.64 713.59 164.124 712.15 164.124C710.71 164.124 709.498 164.64 708.514 165.672C707.554 166.68 707.074 168.132 707.074 170.028C707.074 171.924 707.542 173.388 708.478 174.42C709.438 175.428 710.638 175.932 712.078 175.932ZM731.219 163.152C731.867 162.096 732.707 161.268 733.739 160.668C734.795 160.068 735.995 159.768 737.339 159.768V165.06H736.007C734.423 165.06 733.223 165.432 732.407 166.176C731.615 166.92 731.219 168.216 731.219 170.064V180H726.179V160.056H731.219V163.152ZM752.542 180L745.774 171.504V180H740.734V153.36H745.774V168.516L752.47 160.056H759.022L750.238 170.064L759.094 180H752.542ZM764.313 157.68C763.425 157.68 762.681 157.404 762.081 156.852C761.505 156.276 761.217 155.568 761.217 154.728C761.217 153.888 761.505 153.192 762.081 152.64C762.681 152.064 763.425 151.776 764.313 151.776C765.201 151.776 765.933 152.064 766.509 152.64C767.109 153.192 767.409 153.888 767.409 154.728C767.409 155.568 767.109 156.276 766.509 156.852C765.933 157.404 765.201 157.68 764.313 157.68ZM766.797 160.056V180H761.757V160.056H766.797ZM782.829 159.768C785.205 159.768 787.125 160.524 788.589 162.036C790.053 163.524 790.785 165.612 790.785 168.3V180H785.745V168.984C785.745 167.4 785.349 166.188 784.557 165.348C783.765 164.484 782.685 164.052 781.317 164.052C779.925 164.052 778.821 164.484 778.005 165.348C777.213 166.188 776.817 167.4 776.817 168.984V180H771.777V160.056H776.817V162.54C777.489 161.676 778.341 161.004 779.373 160.524C780.429 160.02 781.581 159.768 782.829 159.768ZM803.39 159.732C804.878 159.732 806.186 160.032 807.314 160.632C808.442 161.208 809.33 161.964 809.978 162.9V160.056H815.054V180.144C815.054 181.992 814.682 183.636 813.938 185.076C813.194 186.54 812.078 187.692 810.59 188.532C809.102 189.396 807.302 189.828 805.19 189.828C802.358 189.828 800.03 189.168 798.206 187.848C796.406 186.528 795.386 184.728 795.146 182.448H800.15C800.414 183.36 800.978 184.08 801.842 184.608C802.73 185.16 803.798 185.436 805.046 185.436C806.51 185.436 807.698 184.992 808.61 184.104C809.522 183.24 809.978 181.92 809.978 180.144V177.048C809.33 177.984 808.43 178.764 807.278 179.388C806.15 180.012 804.854 180.324 803.39 180.324C801.71 180.324 800.174 179.892 798.782 179.028C797.39 178.164 796.286 176.952 795.47 175.392C794.678 173.808 794.282 171.996 794.282 169.956C794.282 167.94 794.678 166.152 795.47 164.592C796.286 163.032 797.378 161.832 798.746 160.992C800.138 160.152 801.686 159.732 803.39 159.732ZM809.978 170.028C809.978 168.804 809.738 167.76 809.258 166.896C808.778 166.008 808.13 165.336 807.314 164.88C806.498 164.4 805.622 164.16 804.686 164.16C803.75 164.16 802.886 164.388 802.094 164.844C801.302 165.3 800.654 165.972 800.15 166.86C799.67 167.724 799.43 168.756 799.43 169.956C799.43 171.156 799.67 172.212 800.15 173.124C800.654 174.012 801.302 174.696 802.094 175.176C802.91 175.656 803.774 175.896 804.686 175.896C805.622 175.896 806.498 175.668 807.314 175.212C808.13 174.732 808.778 174.06 809.258 173.196C809.738 172.308 809.978 171.252 809.978 170.028ZM837.41 180.324C835.49 180.324 833.762 179.904 832.226 179.064C830.69 178.2 829.478 176.988 828.59 175.428C827.726 173.868 827.294 172.068 827.294 170.028C827.294 167.988 827.738 166.188 828.626 164.628C829.538 163.068 830.774 161.868 832.334 161.028C833.894 160.164 835.634 159.732 837.554 159.732C839.474 159.732 841.214 160.164 842.774 161.028C844.334 161.868 845.558 163.068 846.446 164.628C847.358 166.188 847.814 167.988 847.814 170.028C847.814 172.068 847.346 173.868 846.41 175.428C845.498 176.988 844.25 178.2 842.666 179.064C841.106 179.904 839.354 180.324 837.41 180.324ZM837.41 175.932C838.322 175.932 839.174 175.716 839.966 175.284C840.782 174.828 841.43 174.156 841.91 173.268C842.39 172.38 842.63 171.3 842.63 170.028C842.63 168.132 842.126 166.68 841.118 165.672C840.134 164.64 838.922 164.124 837.482 164.124C836.042 164.124 834.83 164.64 833.846 165.672C832.886 166.68 832.406 168.132 832.406 170.028C832.406 171.924 832.874 173.388 833.81 174.42C834.77 175.428 835.97 175.932 837.41 175.932ZM862.563 159.768C864.939 159.768 866.859 160.524 868.323 162.036C869.787 163.524 870.519 165.612 870.519 168.3V180H865.479V168.984C865.479 167.4 865.083 166.188 864.291 165.348C863.499 164.484 862.419 164.052 861.051 164.052C859.659 164.052 858.555 164.484 857.739 165.348C856.947 166.188 856.551 167.4 856.551 168.984V180H851.511V160.056H856.551V162.54C857.223 161.676 858.075 161.004 859.107 160.524C860.163 160.02 861.315 159.768 862.563 159.768ZM886.446 157.68C885.558 157.68 884.814 157.404 884.214 156.852C883.638 156.276 883.35 155.568 883.35 154.728C883.35 153.888 883.638 153.192 884.214 152.64C884.814 152.064 885.558 151.776 886.446 151.776C887.334 151.776 888.066 152.064 888.642 152.64C889.242 153.192 889.542 153.888 889.542 154.728C889.542 155.568 889.242 156.276 888.642 156.852C888.066 157.404 887.334 157.68 886.446 157.68ZM888.93 160.056V180H883.89V160.056H888.93ZM899.778 164.196V173.844C899.778 174.516 899.934 175.008 900.246 175.32C900.582 175.608 901.134 175.752 901.902 175.752H904.242V180H901.074C896.826 180 894.702 177.936 894.702 173.808V164.196H892.326V160.056H894.702V155.124H899.778V160.056H904.242V164.196H899.778ZM914.383 154.44L913.807 171.828H909.559L908.947 154.44H914.383ZM911.791 180.252C910.879 180.252 910.123 179.976 909.523 179.424C908.947 178.848 908.659 178.14 908.659 177.3C908.659 176.46 908.947 175.764 909.523 175.212C910.123 174.636 910.879 174.348 911.791 174.348C912.679 174.348 913.411 174.636 913.987 175.212C914.563 175.764 914.851 176.46 914.851 177.3C914.851 178.14 914.563 178.848 913.987 179.424C913.411 179.976 912.679 180.252 911.791 180.252Z" fill="black"/>
<g filter="url(#filter0_i_3743_21134)">
<rect x="616" y="780" width="206" height="57" rx="28.5" fill="#388DE1"/>
</g>
<rect x="614.5" y="778.5" width="209" height="60" rx="30" stroke="#388DE1" stroke-width="3"/>
<path d="M694.27 798.34C695.887 798.34 697.285 798.652 698.465 799.277C700.176 800.176 701.223 801.75 701.605 804H699.297C699.016 802.742 698.434 801.828 697.551 801.258C696.668 800.68 695.555 800.391 694.211 800.391C692.617 800.391 691.273 800.988 690.18 802.184C689.094 803.379 688.551 805.16 688.551 807.527C688.551 809.574 689 811.242 689.898 812.531C690.797 813.812 692.262 814.453 694.293 814.453C695.848 814.453 697.133 814.004 698.148 813.105C699.172 812.199 699.695 810.738 699.719 808.723H694.328V806.789H701.887V816H700.387L699.824 813.785C699.035 814.652 698.336 815.254 697.727 815.59C696.703 816.168 695.402 816.457 693.824 816.457C691.785 816.457 690.031 815.797 688.562 814.477C686.961 812.82 686.16 810.547 686.16 807.656C686.16 804.773 686.941 802.48 688.504 800.777C689.988 799.152 691.91 798.34 694.27 798.34ZM710.207 814.641C711.605 814.641 712.562 814.113 713.078 813.059C713.602 811.996 713.863 810.816 713.863 809.52C713.863 808.348 713.676 807.395 713.301 806.66C712.707 805.504 711.684 804.926 710.23 804.926C708.941 804.926 708.004 805.418 707.418 806.402C706.832 807.387 706.539 808.574 706.539 809.965C706.539 811.301 706.832 812.414 707.418 813.305C708.004 814.195 708.934 814.641 710.207 814.641ZM710.289 803.086C711.906 803.086 713.273 803.625 714.391 804.703C715.508 805.781 716.066 807.367 716.066 809.461C716.066 811.484 715.574 813.156 714.59 814.477C713.605 815.797 712.078 816.457 710.008 816.457C708.281 816.457 706.91 815.875 705.895 814.711C704.879 813.539 704.371 811.969 704.371 810C704.371 807.891 704.906 806.211 705.977 804.961C707.047 803.711 708.484 803.086 710.289 803.086ZM725.605 798.785H727.961V805.898H736.914V798.785H739.27V816H736.914V807.949H727.961V816H725.605V798.785ZM747.59 814.641C748.988 814.641 749.945 814.113 750.461 813.059C750.984 811.996 751.246 810.816 751.246 809.52C751.246 808.348 751.059 807.395 750.684 806.66C750.09 805.504 749.066 804.926 747.613 804.926C746.324 804.926 745.387 805.418 744.801 806.402C744.215 807.387 743.922 808.574 743.922 809.965C743.922 811.301 744.215 812.414 744.801 813.305C745.387 814.195 746.316 814.641 747.59 814.641ZM747.672 803.086C749.289 803.086 750.656 803.625 751.773 804.703C752.891 805.781 753.449 807.367 753.449 809.461C753.449 811.484 752.957 813.156 751.973 814.477C750.988 815.797 749.461 816.457 747.391 816.457C745.664 816.457 744.293 815.875 743.277 814.711C742.262 813.539 741.754 811.969 741.754 810C741.754 807.891 742.289 806.211 743.359 804.961C744.43 803.711 745.867 803.086 747.672 803.086ZM755.969 803.449H758.055V805.23C758.555 804.613 759.008 804.164 759.414 803.883C760.109 803.406 760.898 803.168 761.781 803.168C762.781 803.168 763.586 803.414 764.195 803.906C764.539 804.188 764.852 804.602 765.133 805.148C765.602 804.477 766.152 803.98 766.785 803.66C767.418 803.332 768.129 803.168 768.918 803.168C770.605 803.168 771.754 803.777 772.363 804.996C772.691 805.652 772.855 806.535 772.855 807.645V816H770.664V807.281C770.664 806.445 770.453 805.871 770.031 805.559C769.617 805.246 769.109 805.09 768.508 805.09C767.68 805.09 766.965 805.367 766.363 805.922C765.77 806.477 765.473 807.402 765.473 808.699V816H763.328V807.809C763.328 806.957 763.227 806.336 763.023 805.945C762.703 805.359 762.105 805.066 761.23 805.066C760.434 805.066 759.707 805.375 759.051 805.992C758.402 806.609 758.078 807.727 758.078 809.344V816H755.969V803.449ZM781.188 803.168C782.078 803.168 782.941 803.379 783.777 803.801C784.613 804.215 785.25 804.754 785.688 805.418C786.109 806.051 786.391 806.789 786.531 807.633C786.656 808.211 786.719 809.133 786.719 810.398H777.52C777.559 811.672 777.859 812.695 778.422 813.469C778.984 814.234 779.855 814.617 781.035 814.617C782.137 814.617 783.016 814.254 783.672 813.527C784.047 813.105 784.312 812.617 784.469 812.062H786.543C786.488 812.523 786.305 813.039 785.992 813.609C785.688 814.172 785.344 814.633 784.961 814.992C784.32 815.617 783.527 816.039 782.582 816.258C782.074 816.383 781.5 816.445 780.859 816.445C779.297 816.445 777.973 815.879 776.887 814.746C775.801 813.605 775.258 812.012 775.258 809.965C775.258 807.949 775.805 806.312 776.898 805.055C777.992 803.797 779.422 803.168 781.188 803.168ZM784.551 808.723C784.465 807.809 784.266 807.078 783.953 806.531C783.375 805.516 782.41 805.008 781.059 805.008C780.09 805.008 779.277 805.359 778.621 806.062C777.965 806.758 777.617 807.645 777.578 808.723H784.551Z" fill="#F3F4F6"/>
<path d="M648.198 804.945L666.643 804.945C668.94 804.945 670.802 806.807 670.802 809.104L670.802 810.63C670.802 812.927 668.94 814.789 666.643 814.789H652.208" stroke="#F3F4F6" stroke-width="2.08134" stroke-linejoin="round"/>
<path d="M651.844 800.57C650.135 802.279 649.177 803.237 647.469 804.945L651.844 809.32" stroke="#F3F4F6" stroke-width="2.08134" stroke-linejoin="round"/>
<path d="M901.139 289.805H789.498C785.36 289.805 782.006 293.155 782.006 297.288V379.605C782.006 383.738 785.36 387.088 789.498 387.088H901.139C905.277 387.088 908.631 383.738 908.631 379.605V297.288C908.631 293.155 905.277 289.805 901.139 289.805Z" fill="#F2F6FB"/>
<path d="M801.635 367.088L820.537 338.364C822.331 335.636 826.264 335.355 828.421 337.799L836.047 346.418C839.527 350.344 845.836 349.742 848.497 345.237L866.684 314.393C868.504 311.303 872.852 311.091 874.996 313.976L894.287 340.253C894.737 340.865 895.597 340.996 896.208 340.546C896.819 340.096 896.95 339.235 896.501 338.623L877.205 312.34C873.888 307.875 867.139 308.206 864.318 312.995L846.131 343.837C844.42 346.735 840.346 347.124 838.103 344.593L830.478 335.977C827.124 332.175 821.032 332.611 818.243 336.85L799.341 365.574C798.923 366.209 799.098 367.062 799.732 367.48C800.365 367.898 801.217 367.722 801.635 367.088Z" fill="#E1E5F0"/>
<path d="M809.354 357.077C811.63 357.077 813.475 355.23 813.475 352.951C813.475 350.672 811.63 348.824 809.354 348.824C807.078 348.824 805.233 350.672 805.233 352.951C805.233 355.23 807.078 357.077 809.354 357.077Z" fill="#3ABF7C"/>
<path d="M855.309 334.819C857.585 334.819 859.43 332.972 859.43 330.693C859.43 328.414 857.585 326.566 855.309 326.566C853.033 326.566 851.188 328.414 851.188 330.693C851.188 332.972 853.033 334.819 855.309 334.819Z" fill="#FFCB3D"/>
<path d="M665.121 289.805H542.616C541.375 289.805 540.369 290.81 540.369 292.05V384.843C540.369 386.083 541.375 387.088 542.616 387.088H665.121C666.362 387.088 667.369 386.083 667.369 384.843V292.05C667.369 290.81 666.362 289.805 665.121 289.805Z" fill="#F2F6FB"/>
<path d="M641.611 342.074H646.033C647.703 342.074 648.309 342.248 648.919 342.574C649.53 342.9 650.009 343.379 650.336 343.988C650.662 344.598 650.836 345.203 650.836 346.871V387.09H636.808V346.871C636.808 345.203 636.982 344.598 637.309 343.988C637.635 343.379 638.114 342.9 638.725 342.574C639.335 342.248 639.941 342.074 641.611 342.074Z" fill="#D8DEED"/>
<path d="M625.58 352.828H630.253C631.923 352.828 632.528 353.002 633.139 353.328C633.749 353.654 634.228 354.133 634.555 354.742C634.881 355.352 635.055 355.957 635.055 357.625V387.09H620.777V357.625C620.777 355.957 620.951 355.352 621.277 354.742C621.604 354.133 622.083 353.654 622.694 353.328C623.304 353.002 623.91 352.828 625.58 352.828Z" fill="#D8DEED"/>
<path d="M609.798 319.316H614.221C615.891 319.316 616.496 319.49 617.107 319.816C617.717 320.142 618.197 320.621 618.523 321.231C618.85 321.84 619.023 322.445 619.023 324.113V387.09H604.996V324.113C604.996 322.445 605.17 321.84 605.496 321.231C605.823 320.621 606.302 320.142 606.912 319.816C607.523 319.49 608.128 319.316 609.798 319.316Z" fill="#E1E5F0"/>
<path d="M593.767 328.07H598.189C599.859 328.07 600.465 328.244 601.075 328.57C601.686 328.896 602.165 329.375 602.492 329.984C602.818 330.594 602.992 331.199 602.992 332.867V387.091H588.964V332.867C588.964 331.199 589.138 330.594 589.465 329.984C589.791 329.375 590.27 328.896 590.881 328.57C591.491 328.244 592.097 328.07 593.767 328.07Z" fill="#D8DEED"/>
<path d="M577.986 348.578H582.408C584.078 348.578 584.684 348.752 585.294 349.078C585.905 349.404 586.384 349.883 586.711 350.492C587.037 351.102 587.211 351.707 587.211 353.375V387.091H573.183V353.375C573.183 351.707 573.357 351.102 573.684 350.492C574.01 349.883 574.489 349.404 575.1 349.078C575.71 348.752 576.316 348.578 577.986 348.578Z" fill="#D8DEED"/>
<path d="M561.954 338.324H566.377C568.047 338.324 568.652 338.498 569.263 338.824C569.873 339.15 570.353 339.629 570.679 340.238C571.006 340.848 571.179 341.453 571.179 343.121V387.091H557.152V343.121C557.152 341.453 557.326 340.848 557.652 340.238C557.979 339.629 558.458 339.15 559.068 338.824C559.679 338.498 560.284 338.324 561.954 338.324Z" fill="#D8DEED"/>
<path d="M986.442 584.877V584.947C986.442 585.845 985.655 586.593 984.756 586.593H956.471L966.437 604.853C973.555 617.874 980.635 630.857 987.716 643.878L999.442 665.355C999.854 666.104 999.516 667.076 998.73 667.525L998.58 667.6C997.793 668.049 996.782 667.787 996.407 667.076L952.538 586.593H923.316L879.447 667.076C879.073 667.787 878.061 668.012 877.274 667.6L877.124 667.525C876.338 667.076 876.001 666.104 876.413 665.355L888.139 643.878C895.257 630.857 902.337 617.874 909.418 604.853L919.383 586.593H881.882C880.946 586.593 880.196 585.845 880.196 584.947V584.76C880.196 583.862 880.983 583.113 881.882 583.113H907.357C923.953 583.113 940.587 583.113 957.221 583.113H983.134L986.292 557.595C988.465 540.234 990.6 522.835 992.773 505.436L996.332 476.7C996.445 475.69 997.306 474.942 998.243 475.054L998.43 475.092C999.329 475.204 999.966 476.139 999.854 477.075L986.479 584.685C986.47 584.75 986.457 584.814 986.442 584.877Z" fill="#D8DEED"/>
<path d="M623.706 522.728C623.333 523.386 622.624 523.832 621.813 523.832H567.979C566.78 523.832 565.844 522.859 565.844 521.662C565.844 520.464 566.818 519.491 567.979 519.491H620.343L638.597 470.438C639.009 469.316 640.245 468.754 641.369 469.166C642.493 469.578 643.055 470.812 642.643 471.935L623.874 522.373C623.828 522.498 623.771 522.617 623.706 522.728Z" fill="#474961"/>
<path d="M471.923 584.502V584.572C471.923 585.47 472.71 586.218 473.609 586.218H501.894L491.929 604.478C484.811 617.499 477.73 630.482 470.65 643.503L458.924 664.98C458.512 665.729 458.849 666.701 459.635 667.15L459.785 667.225C460.572 667.674 461.584 667.412 461.958 666.701L505.828 586.218H535.049L578.918 666.701C579.293 667.412 580.304 667.637 581.091 667.225L581.241 667.15C582.028 666.701 582.365 665.729 581.953 664.98L570.227 643.503C563.109 630.482 556.028 617.499 548.948 604.478L538.982 586.218H576.483C577.42 586.218 578.169 585.47 578.169 584.572V584.385C578.169 583.487 577.382 582.738 576.483 582.738H551.008C534.412 582.738 517.778 582.738 501.145 582.738H475.231L472.073 557.22C469.9 539.859 467.765 522.46 465.592 505.061L462.033 476.325C461.921 475.315 461.059 474.567 460.123 474.679L459.935 474.717C459.036 474.829 458.399 475.764 458.512 476.7L471.886 584.31C471.896 584.375 471.908 584.439 471.923 584.502Z" fill="#D8DEED"/>
<path d="M698.988 586.443H669.354C668.455 586.443 667.668 585.695 667.668 584.797V584.61C667.668 583.712 668.455 582.963 669.429 582.963H696.89C713.523 582.963 730.157 582.963 746.753 582.963H772.228C773.127 582.963 773.914 583.712 773.914 584.61V584.797C773.914 585.695 773.165 586.443 772.228 586.443H736.076L746.041 604.702C753.122 617.723 760.202 630.707 767.32 643.728L779.046 665.205C779.458 665.954 779.121 666.926 778.334 667.375L778.185 667.45C777.398 667.862 776.386 667.637 776.012 666.926L732.142 586.443H702.921L659.052 666.926C658.677 667.637 657.666 667.899 656.879 667.45L656.729 667.375C655.942 666.926 655.605 665.954 656.017 665.205L667.743 643.728C674.824 630.707 681.904 617.723 689.022 604.702L698.988 586.443ZM667.781 571.78V550.025C667.781 533.433 667.781 516.879 667.781 500.324V480.554C667.781 477.454 670.297 474.941 673.4 474.941H734.54C737.644 474.941 740.16 477.454 740.16 480.554V571.845C740.16 574.944 737.644 577.457 734.54 577.457C734.538 577.457 734.536 577.457 734.534 577.457L673.394 577.393C670.293 577.39 667.781 574.878 667.781 571.78Z" fill="#D8DEED"/>
<path d="M788.262 667.711H728.733C727.796 667.711 727.047 666.963 727.047 666.027C727.047 665.092 727.796 664.344 728.733 664.344H788.262C789.198 664.344 789.948 665.092 789.948 666.027C789.948 666.963 789.198 667.711 788.262 667.711ZM679.169 667.711C678.233 667.711 677.483 667.064 677.483 666.287V665.768C677.483 664.991 678.27 664.344 679.169 664.344H717.569C718.506 664.344 719.255 664.991 719.255 665.768V666.287C719.255 667.064 718.468 667.711 717.569 667.711H679.169Z" fill="#A339FF"/>
<path d="M788.851 664.447C788.668 664.38 788.47 664.343 788.262 664.343H728.733C728.462 664.343 728.206 664.406 727.98 664.518C727.934 664.355 727.909 664.184 727.909 664.006L729.22 643.315C729.145 642.192 730.007 641.332 731.093 641.294L754.957 641.145C755.369 641.145 755.744 641.257 756.081 641.519C760.352 646.084 764.435 648.628 767.395 650.125C769.68 651.284 777.323 654.502 780.769 656.074C782.53 656.86 784.216 657.795 785.864 658.805C785.977 658.88 786.051 658.917 786.164 659.03C787.026 659.815 788.337 661.237 788.824 662.921C788.899 663.146 788.899 663.333 788.936 663.557C788.974 663.744 788.936 663.931 788.936 664.118V664.156C788.915 664.256 788.887 664.354 788.851 664.447ZM717.785 664.354C717.714 664.347 717.642 664.343 717.569 664.343H679.169C679.168 664.343 679.166 664.343 679.165 664.343L687.861 641.182L714.684 644.811L717.785 664.354Z" fill="#474961"/>
<path d="M727.321 576.608C726.026 577.547 724.896 578.365 723.932 579.059L723.45 587.004C723.226 591.205 722.963 594.895 722.664 598.147C722.439 600.704 719.554 629.675 718.505 640.306C718.281 642.717 716.67 644.763 714.459 645.42C711.125 646.443 686.1 645.274 685.163 644.836C683.964 644.288 683.327 644.032 682.691 643.411C680.443 641.292 680.593 637.931 680.555 636.689C680.33 627.3 679.656 599.06 679.656 579.295C679.656 579.231 679.656 579.166 679.656 579.101C677.186 576.984 675.003 573.798 673.293 569.844C670.694 563.869 669.108 556.099 669.064 547.664C669.064 547.56 669.064 542.484 669.064 532.436C669.064 532.397 669.064 532.397 669.064 532.358C669.108 529.585 671.751 527.398 674.879 527.398H709.462C714.264 527.555 719.022 527.711 723.824 527.867C731.298 528.064 741.932 528.354 755.725 528.737C761.119 528.886 765.991 531.992 768.397 536.815C769.543 539.113 770.24 541.002 770.487 542.481C771.97 545.098 772.79 548.155 772.715 551.411C772.715 551.484 772.715 551.52 772.715 551.593C772.115 581.593 765.109 624.33 764.622 638.782C764.585 639.33 764.435 640.534 763.648 641.812C761.213 645.717 755.519 644.841 742.22 645.169C730.906 645.461 726.335 646.337 724.012 643.125C722.739 641.374 722.776 639.366 722.814 638.454C723.865 617.679 725.459 596.682 727.321 576.608Z" fill="#474BFF"/>
<path opacity="0.176986" d="M727.309 576.746C726.01 577.688 724.881 578.504 723.924 579.193L725.361 555.476C725.399 553.832 725.586 543.895 718.131 537.575C712.699 533.008 706.105 532.716 701.722 532.533C694.979 532.241 689.734 534.14 688.723 534.506C687.449 534.981 686.812 535.236 686.175 535.565C678.907 539.365 679.469 557.631 679.544 560.956C679.618 565.093 679.655 571.496 679.656 578.946C677.259 576.83 675.14 573.703 673.471 569.844C670.872 563.869 669.286 556.099 669.242 547.664C669.242 547.56 669.242 542.484 669.242 532.436C669.242 532.397 669.242 532.397 669.242 532.358C669.286 529.585 671.929 527.398 675.057 527.398H709.64C714.442 527.555 719.2 527.711 724.002 527.867C731.476 528.064 742.11 528.354 755.903 528.737C761.297 528.886 766.168 531.992 768.575 536.815C769.837 539.345 770.554 541.379 770.726 542.917C767.871 537.521 762.244 533.878 755.781 534.002C752.635 534.075 749.525 534.148 746.378 534.221C737.949 534.44 730.943 540.973 730.044 549.513C729.093 558.317 728.172 567.432 727.309 576.746Z" fill="#444444"/>
<path d="M717.821 449.938C720.752 449.991 725.364 450.546 729.921 453.191C730.706 453.638 731.866 454.385 733.137 455.467C734.222 456.401 737.401 459.499 740.431 468.233C741.515 471.294 744.694 477.266 746.527 480.551C747.125 481.633 746.415 482.977 745.143 483.089C741.135 483.376 736.19 485.019 731.518 485.028C731.903 492.011 732.174 500.339 732.277 509.628C732.277 509.628 732.876 520.683 729.435 524.266C728.839 524.897 717.666 524.24 705.797 524.617C693.07 525.021 679.512 526.33 676.357 523.028C671.256 517.686 674.172 516.24 678.854 485.813C678.121 485.888 677.438 485.955 676.83 486.01C672.101 486.459 662.196 486.16 657.43 485.973C656.164 485.936 655.345 484.514 655.866 483.317C657.43 479.688 660.186 473.141 661.005 469.811C663.351 460.309 666.292 456.829 667.298 455.782C668.452 454.585 669.61 453.77 670.314 453.201C672.671 451.291 680.106 449.913 692.618 449.067C698.01 447.233 704.168 447.76 708.154 448.114C710.941 448.367 714.455 448.679 717.821 449.938Z" fill="#A339FF"/>
<path opacity="0.176986" d="M717.944 449.946C720.889 450.043 725.306 450.662 729.671 453.197C730.458 453.646 731.619 454.395 732.893 455.48C733.979 456.415 737.164 459.521 740.198 468.276C741.285 471.344 744.694 477.25 746.529 480.542C747.129 481.627 746.417 482.974 745.143 483.087C743.973 483.171 742.654 483.415 741.401 483.621C740.905 483.703 739.534 483.863 738.924 483.991C735.971 484.613 734.251 485.026 731.498 485.026C731.484 485.026 731.47 485.026 731.456 485.026C730.863 474.259 730.001 466.688 729.07 463.718C728.434 461.697 727.51 459.378 727.51 459.378C727.061 458.068 726.336 456.721 724.875 454.887C722.905 452.445 720.471 450.923 717.944 449.946ZM709.126 453.936C708.451 457.902 707.215 459.073 707.215 459.073C704.368 457.427 694.215 452.29 695.152 449.483C695.227 449.296 695.377 448.922 696.351 448.324C700.022 446.079 704.518 447.164 706.091 447.613C706.091 447.613 713.321 446.789 714.708 451.018C716.094 455.246 714.445 458.239 714.445 458.239C713.247 457.516 711.473 456.081 709.126 453.936Z" fill="#444444"/>
<path d="M732.231 515.183L731.498 485.025L741.425 483.621L744.458 520.6C744.718 520.735 744.971 520.868 745.215 520.999C747.362 522.148 749.142 524.24 750.553 527.275C750.624 527.428 750.66 527.596 750.658 527.764C750.649 528.384 750.138 528.88 749.518 528.871L670.626 527.73C651.792 524 656.915 498.486 660.603 486.089C665.779 486.251 673.09 486.38 676.959 486.015C680.614 485.683 686.963 484.952 690.696 484.393L684.002 504.424C701.978 505.315 719.63 510.316 732.231 515.183ZM711.219 445.177L711.05 452.078C703.884 454.718 698.8 450.656 698.8 450.656C698.8 450.656 699.069 445.512 699.607 435.225C699.52 435.038 699.435 434.842 699.353 434.633C698.679 432.949 696.252 427.421 696.777 425.513C696.873 425.11 694.871 419.113 697.802 416.088C700.586 413.215 708.305 413.296 708.615 413.315C709.926 413.352 711.238 413.315 712.661 413.015C712.811 413.015 712.961 412.978 713.111 412.978C714.384 412.866 721.54 412.529 725.211 417.842C725.549 418.291 725.848 418.777 726.11 419.376C726.672 420.761 726.935 422.257 726.822 423.754L726.298 430.414C726.223 431.088 726.11 431.761 725.961 432.397C724.874 437.112 723.113 440.966 721.24 443.398C719.854 445.231 718.356 446.279 717.044 446.316C716.67 446.354 714.647 446.316 712.287 445.605C712.133 445.554 712.172 445.59 711.219 445.177Z" fill="#F2A98A"/>
<path d="M691.635 484.333C691.512 484.617 691.181 484.748 690.896 484.624C690.611 484.5 690.481 484.17 690.605 483.886C691.33 482.22 691.622 481.289 692.183 478.857C692.253 478.555 692.555 478.367 692.857 478.436C693.16 478.506 693.348 478.807 693.278 479.109C692.702 481.603 692.391 482.598 691.635 484.333ZM684.399 503.643C684.708 503.614 684.982 503.841 685.011 504.149C685.04 504.458 684.813 504.732 684.504 504.761C684.431 504.768 684.289 504.784 684.086 504.811C683.745 504.856 683.364 504.917 682.954 504.993C681.783 505.211 680.613 505.515 679.525 505.917C678.883 506.155 678.29 506.42 677.754 506.714C677.482 506.864 677.141 506.765 676.991 506.493C676.841 506.221 676.941 505.88 677.213 505.731C677.8 505.408 678.443 505.121 679.135 504.865C680.288 504.438 681.519 504.118 682.748 503.889C683.178 503.809 683.578 503.746 683.937 503.698C684.063 503.681 684.176 503.668 684.274 503.657C684.333 503.65 684.375 503.646 684.399 503.643Z" fill="#482D1F"/>
<path opacity="0.2" d="M744.393 520.639C741.301 519.025 737.127 517.126 732.163 515.204L731.43 485.026L741.357 483.621L744.393 520.639Z" fill="#8C2A00"/>
<path d="M711.23 445.188L711.125 449.012L705.953 442.812C706.027 442.849 706.102 442.886 706.18 442.923C706.93 443.298 707.866 443.709 709.065 444.233C710.115 444.701 710.789 444.997 711.23 445.188Z" fill="#482D1F"/>
<path d="M707.075 427.393L707.042 426.674C707.042 426.674 706.892 425.327 705.955 423.98C705.88 423.905 705.244 423.082 704.269 422.67C702.509 421.997 700.186 422.783 698.912 424.392C697.564 426.038 697.564 428.245 698.275 429.929C698.987 431.613 700.373 432.399 700.86 432.623L703.033 433.297L703.043 433.293C701.144 436.073 699.49 438.497 699.49 438.497C699.49 438.497 696.365 435.617 694.979 433.334C694.304 432.212 691.907 429.48 691.495 425.177C691.382 423.755 690.933 418.929 694.154 415.374C695.278 414.139 696.552 413.541 697.077 413.279C700.036 411.969 702.209 412.755 707.903 412.867C708.353 412.867 709.102 412.905 710.076 412.867C711.837 412.83 713.073 412.755 713.41 412.755C716.22 412.643 722.327 413.503 725.024 417.657C725.174 417.956 725.361 418.218 725.511 418.442C724.724 418.704 723.863 419.191 722.814 419.378C719.967 419.827 717.531 419.265 716.07 418.742C713.223 421.436 710.339 424.092 707.491 426.786C707.361 426.976 707.222 427.179 707.075 427.393Z" fill="#DE6903"/>
<path d="M724.135 431.586C724.247 431.137 724.697 430.8 725.146 430.875C725.446 430.912 725.671 431.137 725.783 431.661C725.895 432.97 724.472 434.617 724.06 433.831C723.798 433.307 724.022 432.222 724.135 431.586ZM716.22 430.565C716.333 430.116 716.782 429.779 717.232 429.854C717.531 429.892 717.756 430.116 717.869 430.64C717.981 431.95 716.557 433.596 716.145 432.81C715.846 432.286 716.07 431.201 716.22 430.565Z" fill="#482D1F"/>
<path d="M721.577 431.843L721.615 435.584C721.615 435.599 721.558 435.656 721.54 435.656C721.335 435.656 721.126 435.642 720.799 435.611C720.735 435.604 720.669 435.598 720.573 435.588C720.453 435.576 720.387 435.569 720.324 435.563C720.107 435.541 719.928 435.524 719.737 435.507C719.531 435.489 719.349 435.642 719.331 435.848C719.313 436.053 719.466 436.235 719.672 436.253C719.859 436.269 720.035 436.286 720.249 436.307C720.311 436.314 720.377 436.32 720.497 436.333C720.594 436.342 720.662 436.349 720.726 436.355C721.075 436.389 721.306 436.404 721.54 436.404C721.972 436.404 722.364 436.012 722.364 435.581L722.327 431.835C722.325 431.629 722.155 431.463 721.948 431.465C721.741 431.467 721.575 431.636 721.577 431.843Z" fill="#482D1F"/>
<path d="M718.955 438.385C718.693 438.272 718.056 437.973 718.018 437.599C718.018 437.524 717.981 437.412 718.056 437.374C718.243 437.187 718.693 437.374 719.367 437.561C720.566 437.861 721.54 437.936 721.54 437.936C721.54 437.936 721.165 438.534 720.941 438.684C720.491 439.096 719.33 438.572 718.955 438.385Z" fill="#482D1F"/>
<path d="M720.618 432.252C720.02 434.533 717.942 436.216 715.471 436.216C712.533 436.216 710.151 433.837 710.151 430.903C710.151 430.252 710.268 429.629 710.482 429.053L707.513 427.776C707.216 427.684 707.051 427.369 707.143 427.073C707.235 426.777 707.55 426.612 707.846 426.704L710.981 428.052C711.925 426.572 713.583 425.59 715.471 425.59C718.409 425.59 720.791 427.969 720.791 430.903C720.791 430.983 720.789 431.062 720.785 431.141L721.954 431.261C722.462 428.855 724.599 427.049 727.159 427.049C730.097 427.049 732.479 429.428 732.479 432.362C732.479 435.297 730.097 437.675 727.159 437.675C724.227 437.675 721.848 435.305 721.84 432.378L720.618 432.252ZM711.667 429.133C711.415 429.671 711.275 430.27 711.275 430.903C711.275 433.217 713.154 435.094 715.471 435.094C717.788 435.094 719.667 433.217 719.667 430.903C719.667 428.589 717.788 426.712 715.471 426.712C713.88 426.712 712.496 427.597 711.784 428.9C711.781 428.913 711.778 428.925 711.774 428.937C711.751 429.011 711.714 429.077 711.667 429.133ZM722.976 432.043C722.968 432.149 722.964 432.255 722.964 432.362C722.964 434.677 724.842 436.553 727.159 436.553C729.477 436.553 731.355 434.677 731.355 432.362C731.355 430.048 729.477 428.172 727.159 428.172C725.026 428.172 723.265 429.762 722.998 431.82C723.002 431.857 723.002 431.895 722.998 431.934C722.994 431.972 722.986 432.008 722.976 432.043Z" fill="#482D1F"/>
<path d="M532.872 667.376C532.835 667.353 532.799 667.328 532.763 667.301L495.15 639.313C494.401 638.752 494.251 637.667 494.813 636.919C495.375 636.17 496.461 636.021 497.211 636.582L534.421 664.27H554.679C555.616 664.27 556.402 665.056 556.402 665.991C556.402 666.927 555.616 667.712 554.679 667.712H533.887C533.506 667.712 533.156 667.589 532.872 667.376ZM652.645 667.712H593.116C592.18 667.712 591.43 666.964 591.43 666.029C591.43 665.093 592.18 664.345 593.116 664.345H652.645C653.582 664.345 654.331 665.093 654.331 666.029C654.331 666.964 653.582 667.712 652.645 667.712Z" fill="#DE3190"/>
<path d="M653.024 664.48C652.848 664.418 652.659 664.385 652.461 664.385H592.932C592.775 664.385 592.623 664.406 592.479 664.445C592.359 664.201 592.292 663.926 592.292 663.633L591.73 642.942C591.655 641.82 592.517 640.959 593.603 640.922L619.341 640.772C619.753 640.772 620.127 640.884 620.464 641.146C624.735 645.711 628.819 648.255 631.778 649.752C634.064 650.912 641.706 654.13 645.153 655.701C646.913 656.487 648.599 657.422 650.248 658.433C650.36 658.507 650.435 658.545 650.547 658.657C651.409 659.443 652.72 660.865 653.207 662.548C653.282 662.773 653.282 662.96 653.32 663.184C653.357 663.372 653.32 663.559 653.32 663.746V663.783C653.266 664.04 653.164 664.275 653.024 664.48ZM555.253 664.491C555.023 664.375 554.765 664.31 554.495 664.31H534.237L497.167 636.727L511.147 616.938L533.7 633.289C534.936 637.479 536.21 641.67 537.484 645.898C538.158 648.106 538.832 650.276 539.507 652.446C541.605 653.269 543.403 654.017 544.677 654.579C547.112 655.626 549.172 656.599 551.42 658.058C551.42 658.058 553.368 659.256 554.454 660.977C554.792 661.538 555.091 662.174 555.279 662.848C555.354 663.147 555.354 663.446 555.391 663.708C555.379 663.954 555.324 664.229 555.253 664.491Z" fill="#474961"/>
<path d="M602.687 528.668L612.919 528.534C615.991 528.347 619.85 530.255 622.734 532.425C623.334 532.874 623.858 533.361 624.345 533.885C624.795 534.371 625.244 534.895 625.619 535.456C627.267 537.813 628.129 540.62 628.092 543.501C628.017 549.749 627.267 554.613 626.78 556.222C623.596 566.063 615.429 602.993 623.634 618.97C623.634 618.97 627.792 627.015 626.893 633.039C626.547 635.46 625.215 638.292 624.798 639.135C624.807 639.148 624.817 639.16 624.826 639.173C621.696 643.684 582.801 650.313 552.918 640.509C548.837 639.17 542.878 637.628 536.06 634.598C535.76 634.485 535.461 634.336 535.198 634.149C530.59 631.193 525.982 628.274 521.374 625.318L509.798 617.91C507.588 616.488 506.951 613.644 508.375 611.586L517.778 597.892L523.397 589.698C524.971 587.378 526.619 584.983 528.305 582.551C529.107 582.577 527.659 582.514 523.959 582.364C511.063 581.84 494.251 579.371 487.882 569.156C484.661 563.955 484.099 558.492 483.836 555.985C482.375 541.355 489.683 533.819 492.078 531.44C493.675 529.854 497.694 527.309 504.137 523.805L546.083 526.276L586.56 527.773C586.629 527.739 595.033 527.121 602.687 528.668Z" fill="#FFCB3D"/>
<path opacity="0.2" d="M602.557 528.668L612.919 528.532C615.991 528.345 619.85 530.253 622.734 532.424C623.334 532.873 623.858 533.359 624.345 533.883C624.795 534.369 625.244 534.893 625.619 535.454C627.267 537.812 628.129 540.618 628.091 543.499C628.017 549.747 627.267 554.612 626.78 556.221C623.596 566.061 615.429 602.991 623.633 618.968C623.633 618.968 627.792 627.013 626.893 633.037C626.541 635.496 625.173 638.379 624.779 639.171C621.402 634.661 608.04 614.076 613.335 578.885C613.485 577.987 616.771 558.588 616.771 553.237C616.771 533.914 612.085 531.164 603.958 529.008C603.497 528.886 603.029 528.772 602.557 528.668Z" fill="#8C2A00"/>
<path d="M545.512 557.554C543.664 560.347 541.717 563.06 536.991 569.518C532.249 575.997 530.296 578.718 528.429 581.539C528.201 581.883 528.296 582.348 528.641 582.575C528.986 582.803 529.451 582.709 529.679 582.364C531.528 579.572 533.474 576.858 538.201 570.401C542.943 563.922 544.896 561.2 546.762 558.38C546.991 558.035 546.896 557.571 546.551 557.343C546.205 557.115 545.741 557.21 545.512 557.554Z" fill="#482D1F"/>
<path d="M526.566 455.595C529.489 455.398 533.241 455.938 536.472 459.045C539.619 462.038 538.121 464.657 542.841 472.664C545.201 476.631 547.449 479.25 546.625 481.719C546.325 482.642 545.438 483.503 543.965 484.301C540.693 484.725 538.683 484.975 537.933 485.049C537.732 485.068 537.501 485.09 537.263 485.114L536.66 495.67L536.622 496.044L535.573 514.64L535.348 518.27C535.348 518.569 535.311 518.831 535.273 519.13C535.236 519.467 535.199 519.766 535.161 520.103C535.049 520.964 534.861 521.787 534.637 522.61C534.524 522.947 534.449 523.283 534.299 523.62L496.012 523.321L491.911 485.115C488.875 485.011 485.647 484.9 482.226 484.782C480.402 484.108 479.304 483.322 478.929 482.424C477.917 479.992 480.765 477.149 483.724 472.883C489.681 464.352 487.845 461.845 491.741 458.515C496.905 454.099 502.171 453.441 505.739 453.682C505.818 453.659 505.898 453.636 505.977 453.614C507.85 453.09 509.873 452.865 511.934 452.977L520.176 453.501C522.448 453.622 524.598 454.38 526.566 455.595Z" fill="#DE3190"/>
<path opacity="0.176986" d="M526.43 455.604C529.372 455.381 533.19 455.889 536.472 459.044C539.619 462.037 538.121 464.657 542.841 472.664C545.201 476.63 547.449 479.249 546.625 481.719C546.325 482.642 545.438 483.502 543.965 484.3C540.693 484.724 538.682 484.974 537.933 485.049C537.684 485.071 537.391 485.101 537.095 485.131L537.654 475.343C537.018 468.271 533.234 460.675 527.764 456.522C527.33 456.193 526.885 455.887 526.43 455.604Z" fill="#444444"/>
<path d="M535.843 506.891L536.456 496.034L536.493 495.659L537.099 485.067L543.318 484.306L545.254 507.696C549.382 508.033 553.535 508.352 557.714 508.652C562.247 508.989 566.78 509.288 571.238 509.55C571.853 509.192 576.988 508.719 582.903 509.55C584.721 509.806 587.389 510.551 590.906 511.787C597.575 513.737 602.049 515.122 604.33 515.941C607.751 517.17 604.33 519.466 599.56 519.466C598.601 519.466 584.93 519.968 580.957 520.526C581.024 520.517 581.094 520.507 581.167 520.498L583.509 521.133C584.714 521.428 585.865 521.875 586.993 522.509C587.999 523.073 589.005 523.637 590.01 524.201C590.286 524.379 590.535 524.67 590.667 525.039C591.094 526.148 590.967 528.15 590.01 528.146L531.927 526.364C532.901 526.292 533.874 526.216 534.847 526.138C525.921 526.794 516.976 527.2 506.839 527.136C500.92 527.099 499.421 526.912 497.623 525.976C489.906 521.973 488.407 510.373 487.171 500.233C486.661 496.303 486.28 491.134 486.528 484.984C498.439 485.394 507.759 485.71 514.491 485.933C514.489 486.235 514.485 486.525 514.481 486.801C514.444 490.692 514.332 494.284 514.669 499.597C514.819 501.805 514.856 503.638 514.931 504.836C521.821 505.576 528.793 506.261 535.843 506.891ZM523.512 451.456L523.003 453.43C524.756 454.087 526.277 455.316 527.931 456.568C527.706 457.541 527.294 458.215 526.807 458.701C523.847 461.657 514.381 459.15 505.203 453.537C505.959 453.326 507.998 452.496 511.634 452.396C511.927 452.388 512.27 452.388 512.664 452.396C513.539 450.588 514.379 448.954 515.298 446.932C515.284 446.924 515.274 446.918 515.268 446.915L516.205 440.105C516.167 439.693 516.28 440.03 515.905 439.88C514.968 439.544 514.144 438.908 513.507 438.084C512.421 436.588 512.196 434.492 512.945 432.622C513.807 430.863 515.868 429.591 517.666 429.89C518.34 430.002 518.94 430.302 519.501 430.751L519.539 430.788C519.726 430.975 519.988 431.05 520.213 431.087C520.85 431.125 521.412 430.713 521.487 430.077L522.536 420.349C522.573 419.713 522.199 419.439 522.835 419.476C523.76 419.551 525.287 419.551 527.419 419.476C527.606 419.476 529.051 419.476 529.201 419.476C530.096 419.626 536.959 419.264 540.443 424.876C540.743 425.438 541.043 425.961 541.268 426.523C541.829 427.907 542.017 429.441 541.829 430.975L540.93 437.748C540.818 438.421 540.668 439.095 540.481 439.768C538.083 448.037 533.85 453.575 530.628 453.537C528.98 453.463 527.331 453.163 525.795 452.565C525.594 452.464 525.723 452.544 523.512 451.456Z" fill="#DB9E75"/>
<path opacity="0.2" d="M535.661 507.09L536.281 496.098L536.318 495.724L536.925 485.114L543.318 484.309L545.11 507.898C541.945 507.64 538.795 507.371 535.661 507.09ZM581.155 520.542L583.281 521.115C584.486 521.41 585.677 521.8 586.805 522.434C587.811 522.998 589.005 523.639 590.01 524.203C590.285 524.381 590.535 524.672 590.667 525.042C591.094 526.15 590.967 528.153 590.01 528.148L531.782 526.426C539.597 525.848 547.301 525.061 555.674 524.266C558.259 524.041 579.525 521.085 580.724 520.599C580.857 520.58 581 520.561 581.155 520.542Z" fill="#8C2A00"/>
<path d="M510.192 505.771C509.884 505.802 509.608 505.577 509.577 505.269C509.545 504.961 509.77 504.685 510.079 504.654L514.874 504.167C515.183 504.136 515.459 504.361 515.49 504.669C515.521 504.978 515.297 505.253 514.988 505.284L510.192 505.771ZM514.349 486.159C514.043 486.107 513.838 485.816 513.89 485.511C513.943 485.205 514.233 485 514.539 485.053C514.551 485.055 514.586 485.06 514.64 485.065C515.124 485.112 515.685 485.063 516.202 484.851C517.143 484.464 517.732 483.613 517.816 482.058C517.925 480.054 517.843 478.459 517.641 477.248C517.594 476.961 517.543 476.722 517.493 476.528C517.465 476.418 517.445 476.352 517.436 476.327C517.332 476.035 517.485 475.714 517.778 475.61C518.07 475.507 518.392 475.66 518.495 475.952C518.564 476.146 518.658 476.513 518.75 477.064C518.965 478.358 519.052 480.034 518.939 482.119C518.831 484.101 517.977 485.335 516.63 485.889C515.918 486.182 515.182 486.245 514.531 486.182C514.449 486.174 514.388 486.166 514.349 486.159Z" fill="#482D1F"/>
<path d="M523.66 451.293L519.801 449.609L522.536 455.184L523.66 451.293Z" fill="#482D1F"/>
<path d="M522.221 436.859L521.187 433.184C520.85 432.286 520.288 431.501 519.576 430.865C519.014 430.416 518.415 430.116 517.741 430.004C515.942 429.705 513.882 430.977 513.02 432.735C512.196 434.494 512.383 436.589 513.582 438.086C514.318 439.078 515.342 439.781 516.549 440.09C516.027 442.989 515.268 446.991 515.268 446.991C515.268 446.991 514.347 446.564 512.506 445.711C508.048 443.221 505.625 438.577 505.239 431.778C497.982 434.571 491.046 432.622 488.332 428.47C486.272 425.289 486.725 421.052 486.871 420.463C488.332 414.575 493.352 413.69 493.352 413.69C493.352 413.69 500.582 409.986 508.3 421.286C508.329 421.329 508.358 421.372 508.387 421.416C509.228 420.548 510.266 419.916 511.372 419.452C514.481 418.18 516.692 419.078 522.611 419.34C523.81 419.415 525.608 419.452 527.856 419.378C528.043 419.378 528.193 419.378 528.343 419.378C529.691 419.34 536.984 419.302 540.468 424.915C540.43 425.027 540.378 425.132 540.293 425.289C540.293 425.289 533.059 437.766 522.221 436.859ZM536.547 435.729C535.798 435.804 534.562 435.841 533.587 435.429C531.902 434.793 533.7 434.008 535.273 434.157C536.023 434.195 536.547 434.606 536.884 434.943C537.109 435.242 536.922 435.691 536.547 435.729ZM542.878 436.514C542.092 436.664 540.93 436.814 539.881 436.477C538.121 435.991 539.806 435.018 541.417 435.055C542.241 435.093 542.766 435.392 543.141 435.729C543.403 435.991 543.253 436.44 542.878 436.514Z" fill="#482D1F"/>
<path d="M539.507 440.408C539.244 439.921 539.507 438.911 539.694 438.275C539.806 437.826 540.293 437.564 540.706 437.639C540.968 437.714 541.267 437.901 541.267 438.425C541.342 439.697 539.844 441.231 539.507 440.408ZM533.363 439.547C533.063 439.061 533.363 438.05 533.55 437.414C533.662 436.965 534.149 436.703 534.562 436.778C534.824 436.853 535.124 437.04 535.124 437.564C535.198 438.836 533.737 440.37 533.363 439.547Z" fill="#482D1F"/>
<path d="M539.529 437.52C539.588 437.322 539.475 437.114 539.277 437.055C539.078 436.996 538.87 437.108 538.811 437.306L538.174 439.439L538.163 439.487L537.526 443.453C537.524 443.467 537.491 443.488 537.424 443.479C537.035 443.386 536.584 443.274 536.102 443.15C535.902 443.098 535.698 443.219 535.646 443.419C535.594 443.619 535.715 443.823 535.915 443.875C536.401 444 536.858 444.113 537.286 444.213C537.771 444.284 538.192 444.011 538.265 443.574L538.899 439.63L539.529 437.52Z" fill="#482D1F"/>
<path d="M523.66 451.483L520.738 450.023L522.012 456.908L523.66 451.483Z" fill="#482D1F"/>
<path d="M534.824 446.804C534.562 446.729 533.925 446.505 533.85 446.056C533.85 445.981 533.812 445.869 533.85 445.794C533.962 445.607 535.161 445.794 535.161 445.794C536.66 446.056 537.072 446.019 537.147 446.243C537.184 446.355 537.147 446.505 536.81 446.804C536.397 447.366 535.199 446.954 534.824 446.804Z" fill="#482D1F"/>
<path d="M867.215 664.715H918.896C919.832 664.715 920.582 665.463 920.582 666.399C920.582 667.334 919.832 668.082 918.896 668.082H859.367H815.535C814.598 668.082 813.849 667.334 813.849 666.399C813.849 665.463 814.598 664.715 815.535 664.715H867.215Z" fill="#FF5645"/>
<path d="M815.91 664.717H815.535C815.427 664.717 815.321 664.727 815.218 664.746C815.113 664.568 815.034 664.369 814.99 664.156V664.118C814.99 663.931 814.952 663.744 814.99 663.557C815.027 663.333 815.027 663.146 815.102 662.921C815.353 662.053 816 661.036 817.042 659.87C817.634 659.208 818.329 658.646 819.101 658.205C820.821 657.223 822.173 656.513 823.157 656.074C826.603 654.502 834.246 651.284 836.531 650.125C839.491 648.628 843.574 646.084 847.845 641.519C848.182 641.257 848.557 641.145 848.969 641.145L870.456 641.294C871.542 641.294 872.404 642.192 872.329 643.315L874.135 653.449C876.037 652.628 877.748 651.836 879.859 650.611C881.62 649.601 884.093 647.954 886.865 645.485C888.401 644.138 889.974 642.791 891.51 641.444L914.7 641.145L919.471 664.753C919.553 664.77 919.632 664.793 919.709 664.821L919.733 664.936C919.494 664.801 919.219 664.722 918.924 664.717C918.915 664.717 918.905 664.717 918.896 664.717H867.215H858.622H815.91Z" fill="#474961"/>
<path opacity="0.176986" d="M867.328 664.717H867.215H815.535C815.427 664.717 815.321 664.727 815.218 664.746C815.113 664.568 815.034 664.369 814.99 664.156V664.118C814.99 663.931 814.952 663.744 814.99 663.557C815.027 663.333 815.027 663.146 815.102 662.921C815.353 662.053 816 661.036 817.042 659.87C817.634 659.208 818.329 658.646 819.101 658.205C820.821 657.223 822.173 656.513 823.157 656.074C826.603 654.502 834.246 651.284 836.531 650.125C839.491 648.628 843.574 646.084 847.845 641.519C848.182 641.257 848.557 641.145 848.969 641.145L870.456 641.294C871.542 641.294 872.404 642.192 872.329 643.315L874.152 653.539C872.159 654.396 869.937 655.304 866.822 656.785C865.024 657.645 863.301 658.618 861.615 659.703C860.791 660.452 859.367 661.986 858.917 663.782C858.842 664.081 858.842 664.38 858.805 664.642C858.805 664.668 858.819 664.693 858.847 664.717H867.44H867.328ZM919.733 664.936C919.494 664.801 919.219 664.722 918.924 664.717L919.121 664.717C919.328 664.717 919.526 664.754 919.709 664.821L919.733 664.936Z" fill="#444444"/>
<path d="M865.777 528.956C866.422 528.853 867.033 528.82 867.609 528.856L936.129 528.594L967.523 528.52C968.797 528.594 974.17 530.236 975.406 531.642C976.605 532.278 984.269 540.194 982.995 554.898C982.77 557.368 982.283 562.868 979.136 568.106C975.84 573.569 970.295 577.573 963.514 579.855C957.52 581.876 950.515 582.587 943.247 581.801C927.887 579.032 912.565 576.301 897.205 573.532V574.093L897.28 574.355C897.28 574.355 899.153 577.872 900.764 581.502C902.375 585.094 904.622 602.081 904.622 602.193C908.294 608.03 912.003 615.925 914.85 625.878C915.974 629.881 916.573 633.024 916.798 634.222C917.25 636.79 917.61 639.89 917.876 643.524C917.88 643.579 917.882 643.633 917.882 643.688C917.882 644.928 916.876 645.933 915.634 645.933C915.27 645.933 914.984 645.933 914.775 645.933L881.47 645.896L871.227 645.845C870.885 645.935 870.527 645.983 870.157 645.983L842.809 645.871H840.599C838.426 645.871 836.591 644.15 836.478 641.98C836.216 637.602 835.879 631.84 835.467 625.18C834.343 608.38 833.743 603.029 833.069 590.083C832.957 587.913 832.844 585.967 832.769 584.134C832.47 575.416 831.683 567.259 830.147 556.595C829.285 550.683 828.873 547.016 828.836 543.911C828.798 541.03 829.66 538.186 831.308 535.829C832.132 534.669 833.069 533.659 834.193 532.798C837.078 530.59 839.144 529.088 846.381 528.981C852.108 528.897 858.732 528.923 865.777 528.956Z" fill="#3ABF7C"/>
<path opacity="0.176986" d="M865.978 528.927C865.886 528.939 865.792 528.954 865.698 528.969C863.076 529.418 860.116 530.952 857.831 532.711C856.707 533.572 855.733 534.582 854.946 535.742C853.298 538.062 852.436 540.83 852.436 543.674V543.861C852.474 546.967 852.886 550.634 853.71 556.545C855.246 567.209 856.033 575.329 856.332 584.084C856.407 585.88 856.52 587.863 856.632 590.033C857.269 602.942 857.906 608.293 859.03 625.13C859.479 631.79 859.816 637.515 860.041 641.93C860.154 644.1 861.989 645.822 864.162 645.822H866.373L871.106 645.845C870.801 645.916 870.483 645.953 870.157 645.953L842.809 645.841H840.599C838.426 645.841 836.591 644.12 836.478 641.95C836.216 637.572 835.879 631.81 835.467 625.15C834.343 608.35 833.743 602.999 833.069 590.053C832.957 587.883 832.844 585.937 832.769 584.104C832.47 575.386 831.683 567.229 830.147 556.565C829.285 550.653 828.873 546.986 828.836 543.881C828.798 541 829.66 538.156 831.308 535.799C832.132 534.639 833.069 533.629 834.193 532.768C837.078 530.56 839.144 529.059 846.381 528.952C852.162 528.866 858.859 528.893 865.978 528.927L865.978 528.927Z" fill="#444444"/>
<path d="M897.018 572.7C896.554 572.244 896.069 571.766 895.563 571.266C895.426 571.131 895.426 571.131 895.289 570.995C893.862 569.582 892.694 568.418 890.429 566.157C890.136 565.864 889.662 565.864 889.369 566.157C889.077 566.449 889.077 566.923 889.369 567.215C891.635 569.478 892.805 570.643 894.234 572.058C894.372 572.194 894.372 572.194 894.509 572.33C895.016 572.831 895.502 573.31 895.967 573.767C896.262 574.057 896.737 574.053 897.027 573.759C897.317 573.464 897.313 572.99 897.018 572.7Z" fill="#482D1F"/>
<path d="M946.199 451.315C948.405 450.567 950.809 450.215 953.305 450.348C963.233 450.834 970.876 458.729 970.388 467.971C970.149 472.489 967.997 476.494 964.697 479.338L972.993 509.626C974.266 514.415 973.817 519.279 971.944 523.47C971.681 524.069 971.382 524.667 971.082 525.228C970.745 525.827 970.37 526.426 969.996 526.987C969.584 527.586 969.134 528.184 968.647 528.746H927.85C927.512 528.184 927.175 527.623 926.876 526.987C926.576 526.426 926.314 525.827 926.089 525.228C925.864 524.667 925.677 524.069 925.489 523.47C925.452 523.358 925.415 523.245 925.377 523.133L914.771 486.209L907.031 487.061C906.357 487.135 905.72 486.686 905.645 486.05L905.308 483.431C905.294 483.314 905.299 483.199 905.321 483.09C904.049 482.318 902.884 481.392 901.899 480.326C900.475 478.792 899.389 476.996 898.752 474.938C896.204 466.781 901.861 458.063 911.377 455.518C915.207 454.494 919.086 454.616 922.519 455.659C923.975 454.648 925.57 453.871 927.288 453.388L935.492 450.956C939.27 450.397 942.903 450.527 946.199 451.315Z" fill="#FF5645"/>
<path opacity="0.176986" d="M914.715 486.214L907.031 487.059C906.357 487.134 905.72 486.685 905.645 486.049L905.308 483.429C905.294 483.312 905.299 483.198 905.321 483.088C904.049 482.316 902.884 481.39 901.899 480.324C900.475 478.79 899.389 476.994 898.752 474.936C896.204 466.779 901.861 458.061 911.377 455.517C915.228 454.487 919.129 454.616 922.576 455.674C914.825 460.98 910.98 472.874 913.541 482.129L914.715 486.214Z" fill="#444444"/>
<path d="M908.219 457.168C908.219 457.168 907.507 460.012 911.291 459.226C915.075 458.44 916.161 458.066 916.161 458.066L915.187 455.484L908.219 457.168Z" fill="#482D1F"/>
<path d="M921.264 449.739C921.14 449.772 921.018 449.803 920.897 449.832L921.281 449.777L921.264 449.739ZM931.291 443.702L932.233 443.323L936.766 451.143L929.293 453.481L936.616 488.223C936.616 488.223 937.238 485.716 938.035 481.194C938.073 481.207 938.112 481.217 938.152 481.226L958.869 485.828C958.956 485.848 959.044 485.858 959.13 485.859C958.405 488.749 957.632 492.224 956.808 495.819C954.673 505.098 954.336 509.401 950.927 515.537C947.031 522.534 943.434 522.721 942.011 523.245C938.826 524.48 935.642 524.293 933.656 523.806C931.274 523.23 926.91 522.302 923.207 515.578L925.377 523.133C925.414 523.245 925.452 523.357 925.489 523.47C925.677 524.068 925.864 524.667 926.089 525.228C926.313 525.827 926.576 526.426 926.875 526.987C927.175 527.623 927.512 528.184 927.849 528.745H932.648L870.471 528.824C870.296 528.824 870.136 528.765 870.009 528.665C859.696 522.442 854.589 517.691 854.686 514.413C857.805 513.939 862.257 513.288 868.042 512.46C871.636 511.946 875.286 511.957 878.877 512.491L890.169 514.173C898.617 511.468 909.891 507.916 912.705 507.304L907.871 486.968L914.771 486.209L918.015 497.502C916.12 484.13 916.61 470.197 914.897 456.782L910.954 456.868C908.631 457.803 903.761 459.375 903.236 456.045C903.236 456.045 909.68 453.388 914.213 451.443L914.55 451.143C914.85 450.881 915.112 450.732 915.487 450.619C915.562 450.582 915.636 450.582 915.711 450.582L917.51 450.32L917.761 450.284C917.164 450.313 916.748 450.298 916.598 450.283C913.468 450.058 909.817 444.333 908.178 436.064C908.029 435.391 907.992 434.717 907.917 434.044L907.619 427.346C907.545 425.85 907.843 424.353 908.551 423.043C908.849 422.482 909.147 421.958 909.482 421.547C913.319 416.383 920.398 416.944 921.665 417.094C921.814 417.094 921.963 417.131 922.112 417.131C923.527 417.468 924.794 417.58 926.135 417.543C926.731 417.543 927.216 418.029 927.253 418.628L927.439 428.207C927.476 429.105 932.022 427.384 932.022 427.346C934.203 425.7 936.939 434.568 935.822 435.877C935.002 436.775 932.692 438.047 932.022 438.272C931.612 438.422 931.314 438.758 931.239 439.132C931.495 441.027 931.512 442.551 931.291 443.702Z" fill="#DB9E75"/>
<path opacity="0.2" d="M907.871 487.001L914.77 486.242L925.376 523.166C925.414 523.278 925.451 523.39 925.489 523.503C925.676 524.101 925.863 524.7 926.088 525.261C926.313 525.86 926.575 526.459 926.875 527.02C927.174 527.656 927.512 528.217 927.849 528.778H932.648L870.47 528.857C870.296 528.857 870.135 528.798 870.008 528.699C859.696 522.475 854.588 517.724 854.685 514.446C857.805 513.972 862.256 513.321 868.041 512.494C871.635 511.979 875.285 511.99 878.876 512.525L890.168 514.206C898.616 511.501 909.89 507.949 912.705 507.337L907.871 487.001Z" fill="#8C2A00"/>
<path d="M852.991 519.525C857.011 514.583 865.287 510.581 879.139 519.799C881.251 521.157 880.536 525.611 878.213 525.661L854.263 526.064C852.463 526.124 851.65 521.188 852.991 519.525Z" fill="#474961"/>
<path d="M942.8 426.088C947.605 429.239 952.193 433.87 951.376 436.927C950.739 439.396 948.342 440.706 945.907 442.053C943.94 443.13 940.308 444.797 935.079 445.147C935.079 445.151 935.08 445.155 935.08 445.158C933.844 445.346 932.645 445.533 931.408 445.72C930.772 445.795 930.172 445.346 930.135 444.709C930.322 443.362 930.509 442.015 930.697 440.668C930.865 439.996 931.042 439.148 931.15 438.238C931.748 438.094 933.082 437.708 934.106 436.515C935.23 435.206 935.829 433.223 935.08 431.314C934.406 429.481 932.532 428.059 930.734 428.209C929.723 428.284 928.936 428.845 928.824 428.92C928.011 429.534 927.334 430.376 926.966 430.88C925.203 430.197 922.467 428.737 920.207 425.851C919.683 425.203 919.071 424.243 918.371 422.97C914.64 423.816 911.505 423.604 908.968 422.334C909.522 421.281 910.386 420.327 911.559 419.475C913.32 418.197 913.514 418.042 915.735 417.419C917.125 417.029 919.755 416.905 921.636 417.096H921.706C923.841 417.32 925.602 417.395 926.763 417.395C932.457 417.508 934.668 416.759 937.552 418.181C938.077 418.443 939.313 419.116 940.4 420.389C941.939 422.186 942.57 424.267 942.8 426.088ZM908.865 438.955C910.283 444.009 911.79 445.869 911.598 445.869C911.406 445.869 910.907 446.131 907.049 445.046C905.138 444.522 903.34 443.999 902.516 442.464C901.354 440.294 904.815 435.811 907.887 432.817C907.887 435.033 908.254 436.704 908.865 438.955ZM906.608 431.539C906.233 431.464 906.083 431.015 906.346 430.753C906.683 430.454 907.245 430.08 907.994 430.042C909.53 429.967 911.216 430.865 909.567 431.389C908.519 431.763 907.32 431.651 906.608 431.539ZM913.876 431.539C913.501 431.464 913.351 431.015 913.651 430.753C913.988 430.454 914.55 430.08 915.337 430.042C916.873 429.967 918.559 430.903 916.91 431.389C915.786 431.763 914.625 431.651 913.876 431.539Z" fill="#482D1F"/>
<path d="M909.418 434.416C909.493 435.053 909.568 436.1 909.23 436.549C908.743 437.223 907.582 435.502 907.844 434.304C907.957 433.78 908.219 433.631 908.519 433.631C908.968 433.631 909.343 433.968 909.418 434.416ZM916.086 434.192C916.199 434.828 916.273 435.876 915.899 436.325C915.412 436.998 914.25 435.277 914.513 434.08C914.625 433.556 914.887 433.406 915.187 433.406C915.637 433.406 916.011 433.743 916.086 434.192Z" fill="#482D1F"/>
<path d="M936.189 488.419C936.101 488.121 936.271 487.809 936.569 487.721C936.866 487.634 937.179 487.803 937.267 488.101L940.976 500.635C941.064 500.932 940.894 501.245 940.596 501.332C940.299 501.42 939.986 501.251 939.898 500.953L936.189 488.419ZM961.561 481.969C961.57 482.035 961.568 482.104 961.552 482.173L960.916 484.976C960.699 485.952 959.725 486.555 958.747 486.338C958.444 486.271 958.253 485.971 958.32 485.668C958.387 485.366 958.688 485.175 958.991 485.242C959.369 485.326 959.738 485.097 959.819 484.731L960.366 482.32C960.266 482.267 960.181 482.184 960.127 482.075C959.988 481.798 960.101 481.461 960.378 481.322C961.978 480.523 963.466 479.471 964.734 478.241C964.956 478.025 965.312 478.03 965.528 478.252C965.744 478.475 965.739 478.83 965.517 479.046C964.348 480.18 963.005 481.171 961.561 481.969ZM938.412 476.971C938.41 476.996 938.406 477.021 938.4 477.046L937.764 479.85C937.68 480.228 937.909 480.596 938.274 480.677C938.576 480.745 938.768 481.044 938.7 481.347C938.633 481.65 938.333 481.84 938.03 481.773C937.053 481.556 936.449 480.584 936.667 479.605L937.304 476.798C937.329 476.69 937.383 476.595 937.457 476.523C937.016 475.989 936.683 475.521 936.406 475.046C936.156 474.619 935.948 474.182 935.727 473.636C935.576 473.263 935.483 473.013 935.151 472.1C935.045 471.809 935.195 471.487 935.487 471.381C935.779 471.275 936.101 471.425 936.207 471.717C936.534 472.615 936.625 472.86 936.769 473.215C936.971 473.715 937.157 474.105 937.376 474.48C937.67 474.983 938.04 475.486 938.577 476.107C938.78 476.341 938.754 476.696 938.519 476.898C938.485 476.927 938.449 476.951 938.412 476.971ZM923.873 449.09C922.487 449.726 921.545 450.851 919.383 451.067C917.659 451.479 916.198 450.993 915.449 450.618C915.524 450.581 915.599 450.581 915.674 450.581L917.472 450.319C918.334 450.319 919.718 450.169 921.329 449.72L923.873 449.09Z" fill="#482D1F"/>
<path d="M914.175 441.75C914.437 441.675 915.074 441.451 915.187 441.039C915.187 440.964 915.224 440.852 915.187 440.777C915.037 440.553 914.55 440.665 913.875 440.74C912.677 440.852 911.703 440.74 911.703 440.74C911.703 440.74 912.002 441.488 912.19 441.675C912.602 442.274 913.801 441.9 914.175 441.75Z" fill="#482D1F"/>
<path d="M911.366 434.731L911.368 434.677L911.365 434.704L911.366 434.731ZM910.918 438.68L910.916 438.722C910.916 439.13 911.196 439.51 911.604 439.578C911.679 439.585 911.72 439.588 911.762 439.59C912.158 439.616 912.443 439.62 913.464 439.62C913.67 439.62 913.838 439.453 913.838 439.246C913.838 439.039 913.67 438.872 913.464 438.872C912.461 438.872 912.184 438.868 911.811 438.844C911.772 438.841 911.733 438.838 911.694 438.835C911.702 438.835 911.671 438.792 911.666 438.737L912.113 434.76L912.115 434.706L912.04 432.498C912.033 432.292 911.859 432.13 911.653 432.137C911.446 432.144 911.284 432.317 911.291 432.524L911.365 434.704L910.918 438.68Z" fill="#482D1F"/>
<path d="M972.693 523.656H494.289C492.84 523.656 491.666 524.829 491.666 526.275C491.666 527.722 492.84 528.895 494.289 528.895H972.693C974.141 528.895 975.315 527.722 975.315 526.275C975.315 524.829 974.141 523.656 972.693 523.656Z" fill="#D8DEED"/>
<path d="M791.849 518.047L795.452 503.529H768.407C765.597 503.529 763.274 501.396 763.274 498.814V457.693C763.237 455.074 765.522 452.941 768.37 452.941H850.676C853.486 452.941 855.809 455.074 855.809 457.656V498.814C855.809 501.396 853.486 503.529 850.676 503.529H817.718L816.23 518.047H825.988C827.487 518.047 828.648 519.245 828.648 520.704C828.648 522.2 827.449 523.36 825.988 523.36H784.217C782.718 523.36 781.557 522.163 781.557 520.704C781.482 519.245 782.718 518.047 784.217 518.047H791.849Z" fill="#474961"/>
<path fill-rule="evenodd" clip-rule="evenodd" d="M818.834 492.945L818.945 518.083H816.259L818.834 492.945Z" fill="white"/>
<path d="M781.631 296.164H658.377C654.239 296.164 650.885 299.514 650.885 303.647V394.57C650.885 398.703 654.239 402.053 658.377 402.053H781.631C785.769 402.053 789.124 398.703 789.124 394.57V303.647C789.124 299.514 785.769 296.164 781.631 296.164Z" fill="#F2F6FB"/>
<path d="M733.033 375.963C746.42 368.245 751.021 351.178 743.311 337.842C735.601 324.507 718.499 319.953 705.113 327.67C691.726 335.388 687.125 352.455 694.835 365.791C702.545 379.126 719.647 383.68 733.033 375.963ZM728.559 368.224C719.452 373.474 707.826 370.379 702.589 361.32C697.352 352.262 700.48 340.66 709.587 335.409C718.694 330.158 730.32 333.254 735.557 342.313C740.795 351.371 737.666 362.973 728.559 368.224Z" fill="#E1E5F0"/>
<path d="M702.875 323.802C687.35 332.754 682.011 352.553 690.958 368.027C699.905 383.502 719.745 388.785 735.271 379.834C750.796 370.882 756.135 351.083 747.188 335.609L739.434 340.079C745.908 351.276 742.043 365.61 730.796 372.095C719.549 378.579 705.185 374.754 698.712 363.557C692.238 352.36 696.103 338.025 707.35 331.541L702.875 323.802Z" fill="#474BFF"/>
<path d="M702.64 322.548C686.692 331.743 681.208 352.083 690.399 367.98C699.59 383.877 719.971 389.305 735.92 380.109L730.558 370.836C719.737 377.075 705.918 373.395 699.69 362.623C693.462 351.852 697.181 338.06 708.002 331.821L702.64 322.548Z" fill="#D8DEED"/>
<path d="M650.885 302.153C650.885 298.845 653.569 296.164 656.88 296.164H783.128C786.439 296.164 789.124 298.845 789.124 302.153V308.141H650.885V302.153Z" fill="#E1E5F0"/>
<path d="M658.928 304.875C660.359 304.875 661.518 303.717 661.518 302.289C661.518 300.861 660.359 299.703 658.928 299.703C657.498 299.703 656.338 300.861 656.338 302.289C656.338 303.717 657.498 304.875 658.928 304.875Z" fill="#FF5645"/>
<path d="M667.381 304.875C668.811 304.875 669.971 303.717 669.971 302.289C669.971 300.861 668.811 299.703 667.381 299.703C665.95 299.703 664.791 300.861 664.791 302.289C664.791 303.717 665.95 304.875 667.381 304.875Z" fill="#FFCB3D"/>
<path d="M676.106 304.875C677.537 304.875 678.696 303.717 678.696 302.289C678.696 300.861 677.537 299.703 676.106 299.703C674.676 299.703 673.516 300.861 673.516 302.289C673.516 303.717 674.676 304.875 676.106 304.875Z" fill="#3ABF7C"/>
</g>
<defs>
<filter id="filter0_i_3743_21134" x="613" y="777" width="212" height="63" filterUnits="userSpaceOnUse" color-interpolation-filters="sRGB">
<feFlood flood-opacity="0" result="BackgroundImageFix"/>
<feBlend mode="normal" in="SourceGraphic" in2="BackgroundImageFix" result="shape"/>
<feColorMatrix in="SourceAlpha" type="matrix" values="0 0 0 0 0 0 0 0 0 0 0 0 0 0 0 0 0 0 127 0" result="hardAlpha"/>
<feMorphology radius="7" operator="erode" in="SourceAlpha" result="effect1_innerShadow_3743_21134"/>
<feOffset/>
<feComposite in2="hardAlpha" operator="arithmetic" k2="-1" k3="1"/>
<feColorMatrix type="matrix" values="0 0 0 0 1 0 0 0 0 1 0 0 0 0 1 0 0 0 1 0"/>
<feBlend mode="normal" in2="shape" result="effect1_innerShadow_3743_21134"/>
</filter>
<clipPath id="clip0_3743_21134">
<rect width="1440" height="966" fill="white"/>
</clipPath>
</defs>
</svg>
