<svg width="79" height="80" viewBox="0 0 79 80" fill="none" xmlns="http://www.w3.org/2000/svg">
<g id="calculate_24dp_E8EAED_FILL0_wght400_GRAD0_opsz24 1">
<path id="Vector" d="M26.3333 60.2383H31.2708V53.6549H37.8542V48.7174H31.2708V42.1341H26.3333V48.7174H19.75V53.6549H26.3333V60.2383ZM42.7917 57.7695H59.25V52.832H42.7917V57.7695ZM42.7917 49.5404H59.25V44.6029H42.7917V49.5404ZM46.4125 37.032L51.0208 32.4237L55.6292 37.032L59.0854 33.5758L54.4771 28.8029L59.0854 24.1945L55.6292 20.7383L51.0208 25.3466L46.4125 20.7383L42.9563 24.1945L47.5646 28.8029L42.9563 33.5758L46.4125 37.032ZM20.5729 31.2716H37.0313V26.3341H20.5729V31.2716ZM16.4583 70.1133C14.6479 70.1133 13.0981 69.4687 11.8089 68.1794C10.5196 66.8902 9.875 65.3404 9.875 63.5299V17.4466C9.875 15.6362 10.5196 14.0864 11.8089 12.7971C13.0981 11.5079 14.6479 10.8633 16.4583 10.8633H62.5417C64.3521 10.8633 65.9019 11.5079 67.1911 12.7971C68.4804 14.0864 69.125 15.6362 69.125 17.4466V63.5299C69.125 65.3404 68.4804 66.8902 67.1911 68.1794C65.9019 69.4687 64.3521 70.1133 62.5417 70.1133H16.4583ZM16.4583 63.5299H62.5417V17.4466H16.4583V63.5299Z" fill="#212121"/>
</g>
</svg>
