<svg width="21" height="22" viewBox="0 0 21 22" fill="none" xmlns="http://www.w3.org/2000/svg">
<path d="M17.3 6.55C17.2166 6.55 17.1458 6.53333 17.0875 6.5C17.0291 6.46667 16.9833 6.40833 16.95 6.325L16.225 4.625L14.4 3.825C14.3166 3.79167 14.2583 3.74583 14.225 3.6875C14.1916 3.62917 14.175 3.55833 14.175 3.475C14.175 3.39167 14.1916 3.32083 14.225 3.2625C14.2583 3.20417 14.3166 3.15833 14.4 3.125L16.225 2.35L16.95 0.725C16.9833 0.641667 17.0291 0.583333 17.0875 0.55C17.1458 0.516667 17.2166 0.5 17.3 0.5C17.3833 0.5 17.4541 0.516667 17.5125 0.55C17.5708 0.583333 17.6166 0.641667 17.65 0.725L18.375 2.35L20.2 3.125C20.2833 3.15833 20.3416 3.20417 20.375 3.2625C20.4083 3.32083 20.425 3.39167 20.425 3.475C20.425 3.55833 20.4083 3.62917 20.375 3.6875C20.3416 3.74583 20.2833 3.79167 20.2 3.825L18.375 4.625L17.65 6.325C17.6166 6.40833 17.5708 6.46667 17.5125 6.5C17.4541 6.53333 17.3833 6.55 17.3 6.55ZM17.3 21.45C17.2333 21.45 17.1666 21.4333 17.1 21.4C17.0333 21.3667 16.9833 21.3083 16.95 21.225L16.225 19.6L14.425 18.825C14.3416 18.7917 14.2833 18.7458 14.25 18.6875C14.2166 18.6292 14.2 18.5583 14.2 18.475C14.2 18.3917 14.2166 18.3208 14.25 18.2625C14.2833 18.2042 14.3416 18.1583 14.425 18.125L16.225 17.35L16.95 15.625C16.9833 15.5417 17.0291 15.4833 17.0875 15.45C17.1458 15.4167 17.2166 15.4 17.3 15.4C17.3833 15.4 17.4541 15.4167 17.5125 15.45C17.5708 15.4833 17.6166 15.5417 17.65 15.625L18.375 17.35L20.175 18.125C20.2583 18.1583 20.3166 18.2042 20.35 18.2625C20.3833 18.3208 20.4 18.3917 20.4 18.475C20.4 18.5583 20.3833 18.6292 20.35 18.6875C20.3166 18.7458 20.2583 18.7917 20.175 18.825L18.375 19.6L17.65 21.225C17.6166 21.3083 17.5666 21.3667 17.5 21.4C17.4333 21.4333 17.3666 21.45 17.3 21.45ZM6.32498 17.125C6.19164 17.125 6.06248 17.0875 5.93748 17.0125C5.81248 16.9375 5.71664 16.8333 5.64998 16.7L4.02498 13.225L0.524976 11.65C0.391642 11.5833 0.287476 11.4875 0.212476 11.3625C0.137476 11.2375 0.0999756 11.1083 0.0999756 10.975C0.0999756 10.8417 0.137476 10.7125 0.212476 10.5875C0.287476 10.4625 0.391642 10.3667 0.524976 10.3L4.02498 8.725L5.64998 5.275C5.71664 5.125 5.81248 5.0125 5.93748 4.9375C6.06248 4.8625 6.19164 4.825 6.32498 4.825C6.45831 4.825 6.58748 4.8625 6.71248 4.9375C6.83748 5.0125 6.93331 5.11667 6.99998 5.25L8.64998 8.725L12.125 10.3C12.275 10.3667 12.3875 10.4625 12.4625 10.5875C12.5375 10.7125 12.575 10.8417 12.575 10.975C12.575 11.1083 12.5375 11.2375 12.4625 11.3625C12.3875 11.4875 12.275 11.5833 12.125 11.65L8.64998 13.225L6.99998 16.7C6.93331 16.85 6.83748 16.9583 6.71248 17.025C6.58748 17.0917 6.45831 17.125 6.32498 17.125Z" fill="#01A79E"/>
</svg>
