<svg width="16" height="20" viewBox="0 0 16 20" fill="none" xmlns="http://www.w3.org/2000/svg">
<path d="M13.5 14V14.2071L13.6464 14.3536L14.9364 15.6436C15.2536 15.9607 15.0315 16.5 14.58 16.5H1.40999C0.973795 16.5 0.742609 15.9645 1.06354 15.6436L0.713635 15.2936L1.06354 15.6436L2.35354 14.3536L2.49999 14.2071V14V9C2.49999 6.09437 4.02218 3.78092 6.61527 3.16653L6.99999 3.07538V2.68V2C6.99999 1.44614 7.44613 1 7.99999 1C8.55385 1 8.99999 1.44614 8.99999 2V2.68V3.07506L9.38433 3.16644C11.9681 3.78076 13.5 6.10482 13.5 9V14ZM12 15.5H12.5V15V9C12.5 7.6619 12.0927 6.41673 11.3156 5.49727C10.5318 4.56974 9.39203 4 7.99999 4C6.60795 4 5.46819 4.56974 4.68435 5.49727C3.90732 6.41673 3.49999 7.6619 3.49999 9V15V15.5H3.99999H12ZM9.41351 18.5C9.20604 19.0806 8.64883 19.5 7.99999 19.5C7.34432 19.5 6.79073 19.0813 6.58535 18.5H9.41351Z" fill="#718096" stroke="black"/>
</svg>
