<svg width="542" height="380" viewBox="0 0 542 380" fill="none" xmlns="http://www.w3.org/2000/svg">
<path d="M443.139 0.804688H331.498C327.36 0.804688 324.006 4.15509 324.006 8.28802V90.6047C324.006 94.7376 327.36 98.088 331.498 98.088H443.139C447.277 98.088 450.631 94.7376 450.631 90.6047V8.28802C450.631 4.15509 447.277 0.804688 443.139 0.804688Z" fill="#F2F6FB"/>
<path d="M343.635 78.0881L362.537 49.3636C364.331 46.6364 368.264 46.3554 370.421 48.7995L378.047 57.4182C381.527 61.3442 387.836 60.7422 390.497 56.2367L408.684 25.393C410.504 22.3032 414.852 22.0905 416.996 24.9761L436.287 51.2527C436.737 51.8648 437.597 51.9962 438.208 51.5462C438.819 51.0963 438.95 50.2353 438.501 49.6233L419.205 23.3404C415.888 18.8755 409.139 19.2056 406.318 23.9948L388.131 54.8373C386.42 57.7354 382.346 58.1241 380.103 55.5931L372.478 46.9765C369.124 43.1753 363.032 43.6106 360.243 47.8502L341.341 76.5745C340.923 77.2088 341.098 78.0619 341.732 78.4799C342.365 78.8978 343.217 78.7225 343.635 78.0881Z" fill="#E1E5F0"/>
<path d="M351.354 68.077C353.63 68.077 355.475 66.2296 355.475 63.9506C355.475 61.6717 353.63 59.8242 351.354 59.8242C349.078 59.8242 347.233 61.6717 347.233 63.9506C347.233 66.2296 349.078 68.077 351.354 68.077Z" fill="#3ABF7C"/>
<path d="M397.309 45.8192C399.585 45.8192 401.43 43.9718 401.43 41.6928C401.43 39.4139 399.585 37.5664 397.309 37.5664C395.033 37.5664 393.188 39.4139 393.188 41.6928C393.188 43.9718 395.033 45.8192 397.309 45.8192Z" fill="#FFCB3D"/>
<path d="M207.121 0.804688H84.6164C83.375 0.804688 82.3687 1.80981 82.3687 3.04969V95.843C82.3687 97.0829 83.375 98.088 84.6164 98.088H207.121C208.362 98.088 209.369 97.0829 209.369 95.843V3.04969C209.369 1.80981 208.362 0.804688 207.121 0.804688Z" fill="#F2F6FB"/>
<path d="M183.611 53.0742H188.033C189.703 53.0742 190.309 53.2479 190.919 53.574C191.53 53.9001 192.009 54.3786 192.336 54.9884C192.662 55.5981 192.836 56.2029 192.836 57.8708V98.0896H178.808V57.8708C178.808 56.2029 178.982 55.5981 179.309 54.9884C179.635 54.3786 180.114 53.9001 180.725 53.574C181.335 53.2479 181.941 53.0742 183.611 53.0742Z" fill="#D8DEED"/>
<path d="M167.58 63.8281H172.253C173.923 63.8281 174.528 64.0018 175.139 64.3279C175.749 64.654 176.228 65.1325 176.555 65.7423C176.881 66.352 177.055 66.9568 177.055 68.6247V98.0899H162.777V68.6247C162.777 66.9568 162.951 66.352 163.277 65.7423C163.604 65.1325 164.083 64.654 164.694 64.3279C165.304 64.0018 165.91 63.8281 167.58 63.8281Z" fill="#D8DEED"/>
<path d="M151.798 30.3164H156.221C157.891 30.3164 158.496 30.4901 159.107 30.8162C159.717 31.1423 160.197 31.6208 160.523 32.2306C160.85 32.8403 161.023 33.4451 161.023 35.113V98.0896H146.996V35.113C146.996 33.4451 147.17 32.8403 147.496 32.2306C147.823 31.6208 148.302 31.1423 148.912 30.8162C149.523 30.4901 150.128 30.3164 151.798 30.3164Z" fill="#E1E5F0"/>
<path d="M135.767 39.0703H140.189C141.859 39.0703 142.465 39.244 143.075 39.5701C143.686 39.8962 144.165 40.3747 144.492 40.9845C144.818 41.5942 144.992 42.199 144.992 43.8669V98.0905H130.964V43.8669C130.964 42.199 131.138 41.5942 131.465 40.9845C131.791 40.3747 132.27 39.8962 132.881 39.5701C133.491 39.244 134.097 39.0703 135.767 39.0703Z" fill="#D8DEED"/>
<path d="M119.986 59.5781H124.408C126.078 59.5781 126.684 59.7518 127.294 60.0779C127.905 60.404 128.384 60.8825 128.711 61.4923C129.037 62.102 129.211 62.7068 129.211 64.3747V98.0913H115.183V64.3747C115.183 62.7068 115.357 62.102 115.684 61.4923C116.01 60.8825 116.489 60.404 117.1 60.0779C117.71 59.7518 118.316 59.5781 119.986 59.5781Z" fill="#D8DEED"/>
<path d="M103.954 49.3242H108.377C110.047 49.3242 110.652 49.4979 111.263 49.824C111.873 50.1501 112.353 50.6286 112.679 51.2384C113.006 51.8481 113.179 52.4529 113.179 54.1208V98.0909H99.1519V54.1208C99.1519 52.4529 99.3257 51.8481 99.6522 51.2384C99.9787 50.6286 100.458 50.1501 101.068 49.824C101.679 49.4979 102.284 49.3242 103.954 49.3242Z" fill="#D8DEED"/>
<path d="M528.442 295.877V295.947C528.442 296.845 527.655 297.593 526.756 297.593H498.471L508.437 315.853C515.555 328.874 522.635 341.857 529.716 354.878L541.442 376.355C541.854 377.104 541.516 378.076 540.73 378.525L540.58 378.6C539.793 379.049 538.782 378.787 538.407 378.076L494.538 297.593H465.316L421.447 378.076C421.073 378.787 420.061 379.012 419.274 378.6L419.124 378.525C418.338 378.076 418.001 377.104 418.413 376.355L430.139 354.878C437.257 341.857 444.337 328.874 451.418 315.853L461.383 297.593H423.882C422.946 297.593 422.196 296.845 422.196 295.947V295.76C422.196 294.862 422.983 294.113 423.882 294.113H449.357C465.953 294.113 482.587 294.113 499.221 294.113H525.134L528.292 268.595C530.465 251.234 532.6 233.835 534.773 216.436L538.332 187.7C538.445 186.69 539.306 185.942 540.243 186.054L540.43 186.092C541.329 186.204 541.966 187.139 541.854 188.075L528.479 295.685C528.47 295.75 528.457 295.814 528.442 295.877Z" fill="#D8DEED"/>
<path d="M165.706 233.728C165.333 234.386 164.624 234.832 163.813 234.832H109.979C108.78 234.832 107.844 233.859 107.844 232.662C107.844 231.464 108.818 230.491 109.979 230.491H162.343L180.597 181.438C181.009 180.316 182.245 179.754 183.369 180.166C184.493 180.578 185.055 181.812 184.643 182.935L165.874 233.373C165.828 233.498 165.771 233.617 165.706 233.728Z" fill="#474961"/>
<path d="M13.9234 295.502V295.572C13.9234 296.47 14.7101 297.218 15.6092 297.218H43.8945L33.9287 315.478C26.8107 328.499 19.7302 341.482 12.6497 354.503L0.923706 375.98C0.511612 376.729 0.848778 377.701 1.6355 378.15L1.78535 378.225C2.57207 378.674 3.58359 378.412 3.95822 377.701L47.8275 297.218H77.0488L120.918 377.701C121.293 378.412 122.304 378.637 123.091 378.225L123.241 378.15C124.028 377.701 124.365 376.729 123.953 375.98L112.227 354.503C105.109 341.482 98.0281 328.499 90.9476 315.478L80.9818 297.218H118.483C119.42 297.218 120.169 296.47 120.169 295.572V295.385C120.169 294.487 119.382 293.738 118.483 293.738H93.0081C76.4119 293.738 59.7783 293.738 43.1446 293.738H17.2311L14.0733 268.22C11.9004 250.859 9.765 233.46 7.59213 216.061L4.03314 187.325C3.92075 186.315 3.0591 185.567 2.12252 185.679L1.9352 185.717C1.03609 185.829 0.399216 186.764 0.511612 187.7L13.8859 295.31C13.8957 295.375 13.9082 295.439 13.9234 295.502Z" fill="#D8DEED"/>
<path d="M240.988 297.443H211.354C210.455 297.443 209.668 296.695 209.668 295.797V295.61C209.668 294.712 210.455 293.963 211.429 293.963H238.89C255.523 293.963 272.157 293.963 288.753 293.963H314.228C315.127 293.963 315.914 294.712 315.914 295.61V295.797C315.914 296.695 315.165 297.443 314.228 297.443H278.076L288.041 315.702C295.122 328.723 302.202 341.707 309.32 354.728L321.046 376.205C321.458 376.954 321.121 377.926 320.334 378.375L320.185 378.45C319.398 378.862 318.386 378.637 318.012 377.926L274.142 297.443H244.921L201.052 377.926C200.677 378.637 199.666 378.899 198.879 378.45L198.729 378.375C197.942 377.926 197.605 376.954 198.017 376.205L209.743 354.728C216.824 341.707 223.904 328.723 231.022 315.702L240.988 297.443ZM209.781 282.78V261.025C209.781 244.433 209.781 227.879 209.781 211.324V191.554C209.781 188.454 212.297 185.941 215.4 185.941H276.54C279.644 185.941 282.16 188.454 282.16 191.554V282.845C282.16 285.944 279.644 288.457 276.54 288.457C276.538 288.457 276.536 288.457 276.534 288.457L215.394 288.393C212.293 288.39 209.781 285.878 209.781 282.78Z" fill="#D8DEED"/>
<path d="M330.262 378.711H270.733C269.796 378.711 269.047 377.963 269.047 377.027C269.047 376.092 269.796 375.344 270.733 375.344H330.262C331.198 375.344 331.948 376.092 331.948 377.027C331.948 377.963 331.198 378.711 330.262 378.711ZM221.169 378.711C220.233 378.711 219.483 378.064 219.483 377.287V376.768C219.483 375.991 220.27 375.344 221.169 375.344H259.569C260.506 375.344 261.255 375.991 261.255 376.768V377.287C261.255 378.064 260.468 378.711 259.569 378.711H221.169Z" fill="#A339FF"/>
<path d="M330.851 375.447C330.668 375.38 330.47 375.343 330.262 375.343H270.733C270.462 375.343 270.206 375.406 269.98 375.518C269.934 375.355 269.909 375.184 269.909 375.006L271.22 354.315C271.145 353.192 272.007 352.332 273.093 352.294L296.957 352.145C297.369 352.145 297.744 352.257 298.081 352.519C302.352 357.084 306.435 359.628 309.395 361.125C311.68 362.284 319.323 365.502 322.769 367.074C324.53 367.86 326.216 368.795 327.864 369.805C327.977 369.88 328.051 369.917 328.164 370.03C329.026 370.815 330.337 372.237 330.824 373.921C330.899 374.146 330.899 374.333 330.936 374.557C330.974 374.744 330.936 374.931 330.936 375.118V375.156C330.915 375.256 330.887 375.354 330.851 375.447ZM259.785 375.354C259.714 375.347 259.642 375.343 259.569 375.343H221.169C221.168 375.343 221.166 375.343 221.165 375.343L229.861 352.182L256.684 355.811L259.785 375.354Z" fill="#474961"/>
<path d="M269.321 287.608C268.026 288.547 266.896 289.365 265.932 290.059L265.45 298.004C265.226 302.205 264.963 305.895 264.664 309.147C264.439 311.704 261.554 340.675 260.505 351.306C260.281 353.717 258.67 355.763 256.459 356.42C253.125 357.443 228.1 356.274 227.163 355.836C225.964 355.288 225.327 355.032 224.691 354.411C222.443 352.292 222.593 348.931 222.555 347.689C222.33 338.3 221.656 310.06 221.656 290.295C221.656 290.231 221.656 290.166 221.656 290.101C219.186 287.984 217.003 284.798 215.293 280.844C212.694 274.869 211.108 267.099 211.064 258.664C211.064 258.56 211.064 253.484 211.064 243.436C211.064 243.397 211.064 243.397 211.064 243.358C211.108 240.585 213.751 238.398 216.879 238.398H251.462C256.264 238.555 261.022 238.711 265.824 238.867C273.298 239.064 283.932 239.354 297.725 239.737C303.119 239.886 307.991 242.992 310.397 247.815C311.543 250.113 312.24 252.002 312.487 253.481C313.97 256.098 314.79 259.155 314.715 262.411C314.715 262.484 314.715 262.52 314.715 262.593C314.115 292.593 307.109 335.33 306.622 349.782C306.585 350.33 306.435 351.534 305.648 352.812C303.213 356.717 297.519 355.841 284.22 356.169C272.906 356.461 268.335 357.337 266.012 354.125C264.739 352.374 264.776 350.366 264.814 349.454C265.865 328.679 267.459 307.682 269.321 287.608Z" fill="#474BFF"/>
<path opacity="0.176986" d="M269.309 287.746C268.01 288.688 266.881 289.504 265.924 290.193L267.361 266.476C267.399 264.832 267.586 254.895 260.131 248.575C254.699 244.008 248.105 243.716 243.722 243.533C236.979 243.241 231.734 245.14 230.723 245.506C229.449 245.981 228.812 246.236 228.175 246.565C220.907 250.365 221.469 268.631 221.544 271.956C221.618 276.093 221.655 282.496 221.656 289.946C219.259 287.83 217.14 284.703 215.471 280.844C212.872 274.869 211.286 267.099 211.242 258.664C211.242 258.56 211.242 253.484 211.242 243.436C211.242 243.397 211.242 243.397 211.242 243.358C211.286 240.585 213.929 238.398 217.057 238.398H251.64C256.442 238.555 261.2 238.711 266.002 238.867C273.476 239.064 284.11 239.354 297.903 239.737C303.297 239.886 308.168 242.992 310.575 247.815C311.837 250.345 312.554 252.379 312.726 253.917C309.871 248.521 304.244 244.878 297.781 245.002C294.635 245.075 291.525 245.148 288.378 245.221C279.949 245.44 272.943 251.973 272.044 260.513C271.093 269.317 270.172 278.432 269.309 287.746Z" fill="#444444"/>
<path d="M259.821 160.938C262.752 160.991 267.364 161.546 271.921 164.191C272.706 164.638 273.866 165.385 275.137 166.467C276.222 167.401 279.401 170.499 282.431 179.233C283.515 182.294 286.694 188.266 288.527 191.551C289.125 192.633 288.415 193.977 287.143 194.089C283.135 194.376 278.19 196.019 273.518 196.028C273.903 203.011 274.174 211.339 274.277 220.628C274.277 220.628 274.876 231.683 271.435 235.266C270.839 235.897 259.666 235.24 247.797 235.617C235.07 236.021 221.512 237.33 218.357 234.028C213.256 228.686 216.172 227.24 220.854 196.813C220.121 196.888 219.438 196.955 218.83 197.01C214.101 197.459 204.196 197.16 199.43 196.973C198.164 196.936 197.345 195.514 197.866 194.317C199.43 190.688 202.186 184.141 203.005 180.811C205.351 171.309 208.292 167.829 209.298 166.782C210.452 165.585 211.61 164.77 212.314 164.201C214.671 162.291 222.106 160.913 234.618 160.067C240.01 158.233 246.168 158.76 250.154 159.114C252.941 159.367 256.455 159.679 259.821 160.938Z" fill="#A339FF"/>
<path opacity="0.176986" d="M259.944 160.946C262.889 161.043 267.306 161.662 271.671 164.197C272.458 164.646 273.619 165.395 274.893 166.48C275.979 167.415 279.164 170.521 282.198 179.276C283.285 182.344 286.694 188.25 288.529 191.542C289.129 192.627 288.417 193.974 287.143 194.087C285.973 194.171 284.654 194.415 283.401 194.621C282.905 194.703 281.534 194.863 280.924 194.991C277.971 195.613 276.251 196.026 273.498 196.026C273.484 196.026 273.47 196.026 273.456 196.026C272.863 185.259 272.001 177.688 271.07 174.718C270.434 172.697 269.51 170.378 269.51 170.378C269.061 169.068 268.336 167.721 266.875 165.887C264.905 163.445 262.471 161.923 259.944 160.946ZM251.126 164.936C250.451 168.902 249.215 170.073 249.215 170.073C246.368 168.427 236.215 163.29 237.152 160.483C237.227 160.296 237.377 159.922 238.351 159.324C242.022 157.079 246.518 158.164 248.091 158.613C248.091 158.613 255.321 157.789 256.708 162.018C258.094 166.246 256.445 169.239 256.445 169.239C255.247 168.516 253.473 167.081 251.126 164.936Z" fill="#444444"/>
<path d="M274.231 226.183L273.498 196.025L283.425 194.621L286.458 231.6C286.718 231.735 286.971 231.868 287.215 231.999C289.362 233.148 291.142 235.24 292.553 238.275C292.624 238.428 292.66 238.596 292.658 238.764C292.649 239.384 292.138 239.88 291.518 239.871L212.626 238.73C193.792 235 198.915 209.486 202.603 197.089C207.779 197.251 215.09 197.38 218.959 197.015C222.614 196.683 228.963 195.952 232.696 195.393L226.002 215.424C243.978 216.315 261.63 221.316 274.231 226.183ZM253.219 156.177L253.05 163.078C245.884 165.718 240.8 161.656 240.8 161.656C240.8 161.656 241.069 156.512 241.607 146.225C241.52 146.038 241.435 145.842 241.353 145.633C240.679 143.949 238.252 138.421 238.777 136.513C238.873 136.11 236.871 130.113 239.802 127.088C242.586 124.215 250.305 124.296 250.615 124.315C251.926 124.352 253.238 124.315 254.661 124.015C254.811 124.015 254.961 123.978 255.111 123.978C256.384 123.866 263.54 123.529 267.211 128.842C267.549 129.291 267.848 129.777 268.11 130.376C268.672 131.761 268.935 133.257 268.822 134.754L268.298 141.414C268.223 142.088 268.11 142.761 267.961 143.397C266.874 148.112 265.113 151.966 263.24 154.398C261.854 156.231 260.356 157.279 259.044 157.316C258.67 157.354 256.647 157.316 254.287 156.605C254.133 156.554 254.172 156.59 253.219 156.177Z" fill="#F2A98A"/>
<path d="M233.635 195.333C233.512 195.617 233.181 195.748 232.896 195.624C232.611 195.5 232.481 195.17 232.605 194.886C233.33 193.22 233.622 192.289 234.183 189.857C234.253 189.555 234.555 189.367 234.857 189.436C235.16 189.506 235.348 189.807 235.278 190.109C234.702 192.603 234.391 193.598 233.635 195.333ZM226.399 214.643C226.708 214.614 226.982 214.841 227.011 215.149C227.04 215.458 226.813 215.732 226.504 215.761C226.431 215.768 226.289 215.784 226.086 215.811C225.745 215.856 225.364 215.917 224.954 215.993C223.783 216.211 222.613 216.515 221.525 216.917C220.883 217.155 220.29 217.42 219.754 217.714C219.482 217.864 219.141 217.765 218.991 217.493C218.841 217.221 218.941 216.88 219.213 216.731C219.8 216.408 220.443 216.121 221.135 215.865C222.288 215.438 223.519 215.118 224.748 214.889C225.178 214.809 225.578 214.746 225.937 214.698C226.063 214.681 226.176 214.668 226.274 214.657C226.333 214.65 226.375 214.646 226.399 214.643Z" fill="#482D1F"/>
<path opacity="0.2" d="M286.393 231.639C283.301 230.025 279.127 228.126 274.163 226.204L273.43 196.026L283.357 194.621L286.393 231.639Z" fill="#8C2A00"/>
<path d="M253.23 156.188L253.125 160.012L247.953 153.812C248.027 153.849 248.102 153.886 248.18 153.923C248.93 154.298 249.866 154.709 251.065 155.233C252.115 155.701 252.789 155.997 253.23 156.188Z" fill="#482D1F"/>
<path d="M249.075 138.393L249.042 137.674C249.042 137.674 248.892 136.327 247.955 134.98C247.88 134.905 247.244 134.082 246.269 133.67C244.509 132.997 242.186 133.783 240.912 135.392C239.564 137.038 239.564 139.245 240.275 140.929C240.987 142.613 242.373 143.399 242.86 143.623L245.033 144.297L245.043 144.293C243.144 147.073 241.49 149.497 241.49 149.497C241.49 149.497 238.365 146.617 236.979 144.334C236.304 143.212 233.907 140.48 233.495 136.177C233.382 134.755 232.933 129.929 236.154 126.374C237.278 125.139 238.552 124.541 239.077 124.279C242.036 122.969 244.209 123.755 249.903 123.867C250.353 123.867 251.102 123.905 252.076 123.867C253.837 123.83 255.073 123.755 255.41 123.755C258.22 123.643 264.327 124.503 267.024 128.657C267.174 128.956 267.361 129.218 267.511 129.442C266.724 129.704 265.863 130.191 264.814 130.378C261.967 130.827 259.531 130.265 258.07 129.742C255.223 132.436 252.339 135.092 249.491 137.786C249.361 137.976 249.222 138.179 249.075 138.393Z" fill="#DE6903"/>
<path d="M266.135 142.586C266.247 142.137 266.697 141.8 267.146 141.875C267.446 141.912 267.671 142.137 267.783 142.661C267.895 143.97 266.472 145.617 266.06 144.831C265.798 144.307 266.022 143.222 266.135 142.586ZM258.22 141.565C258.333 141.116 258.782 140.779 259.232 140.854C259.531 140.892 259.756 141.116 259.869 141.64C259.981 142.95 258.557 144.596 258.145 143.81C257.846 143.286 258.07 142.201 258.22 141.565Z" fill="#482D1F"/>
<path d="M263.577 142.843L263.615 146.584C263.615 146.599 263.558 146.656 263.54 146.656C263.335 146.656 263.126 146.642 262.799 146.611C262.735 146.604 262.669 146.598 262.573 146.588C262.453 146.576 262.387 146.569 262.324 146.563C262.107 146.541 261.928 146.524 261.737 146.507C261.531 146.489 261.349 146.642 261.331 146.848C261.313 147.053 261.466 147.235 261.672 147.253C261.859 147.269 262.035 147.286 262.249 147.307C262.311 147.314 262.377 147.32 262.497 147.333C262.594 147.342 262.662 147.349 262.726 147.355C263.075 147.389 263.306 147.404 263.54 147.404C263.972 147.404 264.364 147.012 264.364 146.581L264.327 142.835C264.325 142.629 264.155 142.463 263.948 142.465C263.741 142.467 263.575 142.636 263.577 142.843Z" fill="#482D1F"/>
<path d="M260.955 149.385C260.693 149.272 260.056 148.973 260.018 148.599C260.018 148.524 259.981 148.412 260.056 148.374C260.243 148.187 260.693 148.374 261.367 148.561C262.566 148.861 263.54 148.936 263.54 148.936C263.54 148.936 263.165 149.534 262.941 149.684C262.491 150.096 261.33 149.572 260.955 149.385Z" fill="#482D1F"/>
<path d="M262.618 143.252C262.02 145.533 259.942 147.216 257.471 147.216C254.533 147.216 252.151 144.837 252.151 141.903C252.151 141.252 252.268 140.629 252.482 140.053L249.513 138.776C249.216 138.684 249.051 138.369 249.143 138.073C249.235 137.777 249.55 137.612 249.846 137.704L252.981 139.052C253.925 137.572 255.583 136.59 257.471 136.59C260.409 136.59 262.791 138.969 262.791 141.903C262.791 141.983 262.789 142.062 262.785 142.141L263.954 142.261C264.462 139.855 266.599 138.049 269.159 138.049C272.097 138.049 274.479 140.428 274.479 143.362C274.479 146.297 272.097 148.675 269.159 148.675C266.227 148.675 263.848 146.305 263.84 143.378L262.618 143.252ZM253.667 140.133C253.415 140.671 253.275 141.27 253.275 141.903C253.275 144.217 255.154 146.094 257.471 146.094C259.788 146.094 261.667 144.217 261.667 141.903C261.667 139.589 259.788 137.712 257.471 137.712C255.88 137.712 254.496 138.597 253.784 139.9C253.781 139.913 253.778 139.925 253.774 139.937C253.751 140.011 253.714 140.077 253.667 140.133ZM264.976 143.043C264.968 143.149 264.964 143.255 264.964 143.362C264.964 145.677 266.842 147.553 269.159 147.553C271.477 147.553 273.355 145.677 273.355 143.362C273.355 141.048 271.477 139.172 269.159 139.172C267.026 139.172 265.265 140.762 264.998 142.82C265.002 142.857 265.002 142.895 264.998 142.934C264.994 142.972 264.986 143.008 264.976 143.043Z" fill="#482D1F"/>
<path d="M74.8722 378.376C74.8351 378.353 74.7987 378.328 74.763 378.301L37.1501 350.313C36.4008 349.752 36.2509 348.667 36.8129 347.919C37.3748 347.17 38.4613 347.021 39.2105 347.582L76.4212 375.27H96.679C97.6155 375.27 98.4023 376.056 98.4023 376.991C98.4023 377.927 97.6155 378.712 96.679 378.712H75.8869C75.5059 378.712 75.1559 378.589 74.8722 378.376ZM194.645 378.712H135.116C134.18 378.712 133.43 377.964 133.43 377.029C133.43 376.093 134.18 375.345 135.116 375.345H194.645C195.582 375.345 196.331 376.093 196.331 377.029C196.331 377.964 195.582 378.712 194.645 378.712Z" fill="#DE3190"/>
<path d="M195.024 375.48C194.848 375.418 194.659 375.385 194.461 375.385H134.932C134.775 375.385 134.623 375.406 134.479 375.445C134.359 375.201 134.292 374.926 134.292 374.633L133.73 353.942C133.655 352.82 134.517 351.959 135.603 351.922L161.341 351.772C161.753 351.772 162.127 351.884 162.464 352.146C166.735 356.711 170.819 359.255 173.778 360.752C176.064 361.912 183.706 365.13 187.153 366.701C188.913 367.487 190.599 368.422 192.248 369.433C192.36 369.507 192.435 369.545 192.547 369.657C193.409 370.443 194.72 371.865 195.207 373.548C195.282 373.773 195.282 373.96 195.32 374.184C195.357 374.372 195.32 374.559 195.32 374.746V374.783C195.266 375.04 195.164 375.275 195.024 375.48ZM97.2527 375.491C97.0227 375.375 96.7649 375.31 96.4947 375.31H76.237L39.1675 347.727L53.1471 327.938L75.6999 344.289C76.9362 348.479 78.2099 352.67 79.4836 356.898C80.158 359.106 80.8323 361.276 81.5067 363.446C83.6046 364.269 85.4028 365.017 86.6766 365.579C89.1117 366.626 91.1721 367.599 93.4199 369.058C93.4199 369.058 95.368 370.256 96.4544 371.977C96.7916 372.538 97.0913 373.174 97.2786 373.848C97.3536 374.147 97.3535 374.446 97.391 374.708C97.3793 374.954 97.3236 375.229 97.2527 375.491Z" fill="#474961"/>
<path d="M144.687 239.668L154.919 239.534C157.991 239.347 161.85 241.255 164.734 243.425C165.334 243.874 165.858 244.361 166.345 244.885C166.795 245.371 167.244 245.895 167.619 246.456C169.267 248.813 170.129 251.62 170.092 254.501C170.017 260.749 169.267 265.613 168.78 267.222C165.596 277.063 157.429 313.993 165.634 329.97C165.634 329.97 169.792 338.015 168.893 344.039C168.547 346.46 167.215 349.292 166.798 350.135C166.807 350.148 166.817 350.16 166.826 350.173C163.696 354.684 124.801 361.313 94.9184 351.509C90.8368 350.17 84.8783 348.628 78.06 345.598C77.7603 345.485 77.4606 345.336 77.1983 345.149C72.5904 342.193 67.9824 339.274 63.3744 336.318L51.7983 328.91C49.588 327.488 48.9511 324.644 50.3747 322.586L59.778 308.892L65.3974 300.698C66.9709 298.378 68.6193 295.983 70.3051 293.551C71.1073 293.577 69.6587 293.514 65.9594 293.364C53.0627 292.84 36.2511 290.371 29.8824 280.156C26.6606 274.955 26.0986 269.492 25.8364 266.985C24.3753 252.355 31.6835 244.819 34.0783 242.44C35.6748 240.854 39.6945 238.309 46.1373 234.805L88.0826 237.276L128.56 238.773C128.629 238.739 137.033 238.121 144.687 239.668Z" fill="#FFCB3D"/>
<path opacity="0.2" d="M144.557 239.668L154.919 239.532C157.991 239.345 161.85 241.253 164.734 243.424C165.334 243.873 165.858 244.359 166.345 244.883C166.795 245.369 167.244 245.893 167.619 246.454C169.267 248.812 170.129 251.618 170.091 254.499C170.017 260.747 169.267 265.612 168.78 267.221C165.596 277.061 157.429 313.991 165.633 329.968C165.633 329.968 169.792 338.013 168.893 344.037C168.541 346.496 167.173 349.379 166.779 350.171C163.402 345.661 150.04 325.076 155.335 289.885C155.485 288.987 158.771 269.588 158.771 264.237C158.771 244.914 154.085 242.164 145.958 240.008C145.497 239.886 145.029 239.772 144.557 239.668Z" fill="#8C2A00"/>
<path d="M87.5124 268.554C85.664 271.347 83.7174 274.06 78.991 280.518C74.2486 286.997 72.2959 289.718 70.4293 292.539C70.201 292.883 70.2959 293.348 70.6411 293.575C70.9863 293.803 71.4511 293.709 71.6793 293.364C73.5277 290.572 75.4743 287.858 80.2007 281.401C84.9431 274.922 86.8958 272.2 88.7625 269.38C88.9907 269.035 88.8958 268.571 88.5506 268.343C88.2055 268.115 87.7406 268.21 87.5124 268.554Z" fill="#482D1F"/>
<path d="M68.5661 166.595C71.4887 166.398 75.2405 166.938 78.4723 170.045C81.6192 173.038 80.1207 175.657 84.841 183.664C87.2012 187.631 89.449 190.25 88.6248 192.719C88.3251 193.642 87.4385 194.503 85.9649 195.301C82.6931 195.725 80.6826 195.975 79.9333 196.049C79.7316 196.068 79.5006 196.09 79.263 196.114L78.6596 206.67L78.6221 207.044L77.5732 225.64L77.3484 229.27C77.3484 229.569 77.3109 229.831 77.2735 230.13C77.236 230.467 77.1985 230.766 77.1611 231.103C77.0487 231.964 76.8614 232.787 76.6366 233.61C76.5242 233.947 76.4493 234.283 76.2994 234.62L38.0121 234.321L33.9111 196.115C30.8753 196.011 27.6468 195.9 24.2257 195.782C22.4025 195.108 21.3036 194.322 20.9289 193.424C19.9174 190.992 22.7646 188.149 25.7242 183.883C31.6808 175.352 29.8452 172.845 33.7413 169.515C38.905 165.099 44.1713 164.441 47.7393 164.682C47.8185 164.659 47.8978 164.636 47.9773 164.614C49.8505 164.09 51.8735 163.865 53.9339 163.977L62.1758 164.501C64.4483 164.622 66.5982 165.38 68.5661 166.595Z" fill="#DE3190"/>
<path opacity="0.176986" d="M68.4302 166.604C71.3717 166.381 75.1901 166.889 78.4722 170.044C81.6191 173.037 80.1206 175.657 84.8409 183.664C87.2011 187.63 89.4489 190.249 88.6247 192.719C88.325 193.642 87.4383 194.502 85.9648 195.3C82.693 195.724 80.6825 195.974 79.9332 196.049C79.6842 196.071 79.3906 196.101 79.0949 196.131L79.6544 186.343C79.0176 179.271 75.2338 171.675 69.7642 167.522C69.3297 167.193 68.8848 166.887 68.4302 166.604Z" fill="#444444"/>
<path d="M77.8433 217.891L78.4557 207.034L78.4932 206.659L79.0986 196.067L85.3181 195.306L87.2535 218.696C91.3817 219.033 95.5355 219.352 99.7138 219.652C104.247 219.989 108.78 220.288 113.238 220.55C113.853 220.192 118.988 219.719 124.903 220.55C126.721 220.806 129.389 221.551 132.906 222.787C139.575 224.737 144.049 226.122 146.33 226.941C149.751 228.17 146.33 230.466 141.56 230.466C140.601 230.466 126.93 230.968 122.957 231.526C123.024 231.517 123.094 231.507 123.167 231.498L125.509 232.133C126.714 232.428 127.865 232.875 128.993 233.509C129.999 234.073 131.005 234.637 132.01 235.201C132.286 235.379 132.535 235.67 132.667 236.039C133.094 237.148 132.967 239.15 132.01 239.146L73.9267 237.364C74.9014 237.292 75.8743 237.216 76.847 237.138C67.9209 237.794 58.9756 238.2 48.8389 238.136C42.9197 238.099 41.4212 237.912 39.623 236.976C31.9056 232.973 30.4071 221.373 29.1708 211.233C28.6612 207.303 28.28 202.134 28.5283 195.984C40.4386 196.394 49.7594 196.71 56.4908 196.933C56.4886 197.235 56.4854 197.525 56.4814 197.801C56.4439 201.692 56.3315 205.284 56.6687 210.597C56.8186 212.805 56.856 214.638 56.931 215.836C63.8208 216.576 70.7931 217.261 77.8433 217.891ZM65.5124 162.456L65.0025 164.43C66.7557 165.087 68.2767 166.316 69.9307 167.568C69.7059 168.541 69.2938 169.215 68.8068 169.701C65.8472 172.657 56.3814 170.15 47.203 164.537C47.9589 164.326 49.9983 163.496 53.6342 163.396C53.9273 163.388 54.2704 163.388 54.6636 163.396C55.5389 161.588 56.3794 159.954 57.2976 157.932C57.2836 157.924 57.2737 157.918 57.2681 157.915L58.2047 151.105C58.1672 150.693 58.2796 151.03 57.905 150.88C56.9684 150.544 56.1442 149.908 55.5074 149.084C54.4209 147.588 54.1961 145.492 54.9454 143.622C55.8071 141.863 57.8675 140.591 59.6658 140.89C60.3401 141.002 60.9395 141.302 61.5015 141.751L61.5389 141.788C61.7262 141.975 61.9885 142.05 62.2133 142.087C62.8501 142.125 63.4121 141.713 63.487 141.077L64.536 131.349C64.5734 130.713 64.1986 130.439 64.8354 130.476C65.7595 130.551 67.2874 130.551 69.419 130.476C69.6063 130.476 71.0514 130.476 71.2012 130.476C72.0965 130.626 78.9593 130.264 82.4433 135.876C82.743 136.438 83.0427 136.961 83.2675 137.523C83.8295 138.907 84.0168 140.441 83.8295 141.975L82.9304 148.748C82.818 149.421 82.6681 150.095 82.4808 150.768C80.0832 159.037 75.8498 164.575 72.628 164.537C70.9796 164.463 69.3312 164.163 67.7953 163.565C67.5938 163.464 67.7234 163.544 65.5124 162.456Z" fill="#DB9E75"/>
<path opacity="0.2" d="M77.6607 218.09L78.2808 207.098L78.3182 206.724L78.9247 196.114L85.318 195.309L87.1103 218.898C83.9453 218.64 80.7953 218.371 77.6607 218.09ZM123.155 231.542L125.281 232.115C126.486 232.41 127.677 232.8 128.805 233.434C129.811 233.998 131.005 234.639 132.01 235.203C132.285 235.381 132.535 235.672 132.667 236.042C133.094 237.15 132.967 239.153 132.01 239.148L73.7825 237.426C81.5971 236.848 89.3014 236.061 97.6743 235.266C100.259 235.041 121.525 232.085 122.724 231.599C122.857 231.58 123 231.561 123.155 231.542Z" fill="#8C2A00"/>
<path d="M52.1925 216.771C51.8837 216.802 51.608 216.577 51.5766 216.269C51.5453 215.961 51.7702 215.685 52.0789 215.654L56.8742 215.167C57.183 215.136 57.4587 215.361 57.4901 215.669C57.5214 215.978 57.2965 216.253 56.9878 216.284L52.1925 216.771ZM56.3489 197.159C56.043 197.107 55.8376 196.816 55.8901 196.511C55.9427 196.205 56.2332 196 56.5391 196.053C56.5514 196.055 56.5859 196.06 56.6395 196.065C57.124 196.112 57.6852 196.063 58.2022 195.851C59.1432 195.464 59.7323 194.613 59.8165 193.058C59.925 191.054 59.8427 189.459 59.6412 188.248C59.5936 187.961 59.543 187.722 59.4932 187.528C59.4649 187.418 59.4446 187.352 59.4358 187.327C59.3322 187.035 59.4854 186.714 59.7779 186.61C60.0705 186.507 60.3916 186.66 60.4952 186.952C60.5638 187.146 60.6583 187.513 60.7499 188.064C60.9651 189.358 61.0516 191.034 60.9387 193.119C60.8315 195.101 59.9768 196.335 58.6301 196.889C57.9176 197.182 57.1825 197.245 56.5311 197.182C56.4492 197.174 56.3875 197.166 56.3489 197.159Z" fill="#482D1F"/>
<path d="M65.6597 162.293L61.801 160.609L64.5358 166.184L65.6597 162.293Z" fill="#482D1F"/>
<path d="M64.2211 147.859L63.1872 144.184C62.85 143.286 62.2881 142.501 61.5763 141.865C61.0143 141.416 60.4149 141.116 59.7406 141.004C57.9424 140.705 55.8819 141.977 55.0202 143.735C54.196 145.494 54.3834 147.589 55.5822 149.086C56.3177 150.078 57.342 150.781 58.5488 151.09C58.0272 153.989 57.268 157.991 57.268 157.991C57.268 157.991 56.3475 157.564 54.5064 156.711C50.0479 154.221 47.6254 149.577 47.2388 142.778C39.9818 145.571 33.0461 143.622 30.332 139.47C28.2716 136.289 28.7248 132.052 28.871 131.463C30.332 125.575 35.3521 124.69 35.3521 124.69C35.3521 124.69 42.5825 120.986 50.2999 132.286C50.329 132.329 50.3582 132.372 50.3874 132.416C51.228 131.548 52.266 130.916 53.3719 130.452C56.4813 129.18 58.6916 130.078 64.6108 130.34C65.8096 130.415 67.6078 130.452 69.8556 130.378C70.0429 130.378 70.1928 130.378 70.3426 130.378C71.6913 130.34 78.9837 130.302 82.4678 135.915C82.4303 136.027 82.3778 136.132 82.2934 136.289C82.2934 136.289 75.0591 148.766 64.2211 147.859ZM78.5471 146.729C77.7978 146.804 76.5615 146.841 75.5875 146.429C73.9016 145.793 75.6999 145.008 77.2733 145.157C78.0226 145.195 78.5471 145.606 78.8842 145.943C79.109 146.242 78.9217 146.691 78.5471 146.729ZM84.8783 147.514C84.0916 147.664 82.9303 147.814 81.8813 147.477C80.1205 146.991 81.8064 146.018 83.4173 146.055C84.2415 146.093 84.7659 146.392 85.1406 146.729C85.4028 146.991 85.253 147.44 84.8783 147.514Z" fill="#482D1F"/>
<path d="M81.5067 151.408C81.2444 150.921 81.5067 149.911 81.694 149.275C81.8064 148.826 82.2934 148.564 82.7055 148.639C82.9677 148.714 83.2675 148.901 83.2675 149.425C83.3424 150.697 81.8439 152.231 81.5067 151.408ZM75.3627 150.547C75.063 150.061 75.3627 149.05 75.5501 148.414C75.6624 147.965 76.1495 147.703 76.5616 147.778C76.8238 147.853 77.1235 148.04 77.1235 148.564C77.1984 149.836 75.7374 151.37 75.3627 150.547Z" fill="#482D1F"/>
<path d="M81.5286 148.52C81.5877 148.322 81.4749 148.114 81.2767 148.055C81.0784 147.996 80.8697 148.108 80.8106 148.306L80.1737 150.439L80.1628 150.487L79.5259 154.453C79.5236 154.467 79.4913 154.488 79.4243 154.479C79.0353 154.386 78.5837 154.274 78.1024 154.15C77.902 154.098 77.6977 154.219 77.646 154.419C77.5943 154.619 77.7148 154.823 77.9151 154.875C78.4015 155 78.8583 155.113 79.2856 155.213C79.7712 155.284 80.1925 155.011 80.2654 154.574L80.8987 150.63L81.5286 148.52Z" fill="#482D1F"/>
<path d="M65.6599 162.483L62.7378 161.023L64.0115 167.908L65.6599 162.483Z" fill="#482D1F"/>
<path d="M76.8239 157.804C76.5617 157.729 75.9248 157.505 75.8499 157.056C75.8499 156.981 75.8124 156.869 75.8499 156.794C75.9623 156.607 77.1611 156.794 77.1611 156.794C78.6596 157.056 79.0717 157.019 79.1467 157.243C79.1841 157.355 79.1467 157.505 78.8095 157.804C78.3974 158.366 77.1986 157.954 76.8239 157.804Z" fill="#482D1F"/>
<path d="M409.215 375.715H460.896C461.832 375.715 462.582 376.463 462.582 377.399C462.582 378.334 461.832 379.082 460.896 379.082H401.367H357.535C356.598 379.082 355.849 378.334 355.849 377.399C355.849 376.463 356.598 375.715 357.535 375.715H409.215Z" fill="#FF5645"/>
<path d="M357.91 375.717H357.535C357.427 375.717 357.321 375.727 357.218 375.746C357.113 375.568 357.034 375.369 356.99 375.156V375.118C356.99 374.931 356.952 374.744 356.99 374.557C357.027 374.333 357.027 374.146 357.102 373.921C357.353 373.053 358 372.036 359.042 370.87C359.634 370.208 360.329 369.646 361.101 369.205C362.821 368.223 364.173 367.513 365.157 367.074C368.603 365.502 376.246 362.284 378.531 361.125C381.491 359.628 385.574 357.084 389.845 352.519C390.182 352.257 390.557 352.145 390.969 352.145L412.456 352.294C413.542 352.294 414.404 353.192 414.329 354.315L416.135 364.449C418.037 363.628 419.748 362.836 421.859 361.611C423.62 360.601 426.093 358.954 428.865 356.485C430.401 355.138 431.974 353.791 433.51 352.444L456.7 352.145L461.471 375.753C461.553 375.77 461.632 375.793 461.709 375.821L461.733 375.936C461.494 375.801 461.219 375.722 460.924 375.717C460.915 375.717 460.905 375.717 460.896 375.717H409.215H400.622H357.91Z" fill="#474961"/>
<path opacity="0.176986" d="M409.328 375.717H409.215H357.535C357.427 375.717 357.321 375.727 357.218 375.746C357.113 375.568 357.034 375.369 356.99 375.156V375.118C356.99 374.931 356.952 374.744 356.99 374.557C357.027 374.333 357.027 374.146 357.102 373.921C357.353 373.053 358 372.036 359.042 370.87C359.634 370.208 360.329 369.646 361.101 369.205C362.821 368.223 364.173 367.513 365.157 367.074C368.603 365.502 376.246 362.284 378.531 361.125C381.491 359.628 385.574 357.084 389.845 352.519C390.182 352.257 390.557 352.145 390.969 352.145L412.456 352.294C413.542 352.294 414.404 353.192 414.329 354.315L416.152 364.539C414.159 365.396 411.937 366.304 408.822 367.785C407.024 368.645 405.301 369.618 403.615 370.703C402.791 371.452 401.367 372.986 400.917 374.782C400.842 375.081 400.842 375.38 400.805 375.642C400.805 375.668 400.819 375.693 400.847 375.717H409.44H409.328ZM461.733 375.936C461.494 375.801 461.219 375.722 460.924 375.717L461.121 375.717C461.328 375.717 461.526 375.754 461.709 375.821L461.733 375.936Z" fill="#444444"/>
<path d="M407.777 239.956C408.422 239.853 409.033 239.82 409.609 239.856L478.129 239.594L509.523 239.52C510.797 239.594 516.17 241.236 517.406 242.642C518.605 243.278 526.269 251.194 524.995 265.898C524.77 268.368 524.283 273.868 521.136 279.106C517.84 284.569 512.295 288.573 505.514 290.855C499.52 292.876 492.515 293.587 485.247 292.801C469.887 290.032 454.565 287.301 439.205 284.532V285.093L439.28 285.355C439.28 285.355 441.153 288.872 442.764 292.502C444.375 296.094 446.622 313.081 446.622 313.193C450.294 319.03 454.003 326.925 456.85 336.878C457.974 340.881 458.573 344.024 458.798 345.222C459.25 347.79 459.61 350.89 459.876 354.524C459.88 354.579 459.882 354.633 459.882 354.688C459.882 355.928 458.876 356.933 457.634 356.933C457.27 356.933 456.984 356.933 456.775 356.933L423.47 356.896L413.227 356.845C412.885 356.935 412.527 356.983 412.157 356.983L384.809 356.871H382.599C380.426 356.871 378.591 355.15 378.478 352.98C378.216 348.602 377.879 342.84 377.467 336.18C376.343 319.38 375.743 314.029 375.069 301.083C374.957 298.913 374.844 296.967 374.769 295.134C374.47 286.416 373.683 278.259 372.147 267.595C371.285 261.683 370.873 258.016 370.836 254.911C370.798 252.03 371.66 249.186 373.308 246.829C374.132 245.669 375.069 244.659 376.193 243.798C379.078 241.59 381.144 240.088 388.381 239.981C394.108 239.897 400.732 239.923 407.777 239.956Z" fill="#3ABF7C"/>
<path opacity="0.176986" d="M407.978 239.927C407.886 239.939 407.792 239.954 407.698 239.969C405.076 240.418 402.116 241.952 399.831 243.711C398.707 244.572 397.733 245.582 396.946 246.742C395.298 249.062 394.436 251.83 394.436 254.674V254.861C394.474 257.967 394.886 261.634 395.71 267.545C397.246 278.209 398.033 286.329 398.332 295.084C398.407 296.88 398.52 298.863 398.632 301.033C399.269 313.942 399.906 319.293 401.03 336.13C401.479 342.79 401.816 348.515 402.041 352.93C402.154 355.1 403.989 356.822 406.162 356.822H408.373L413.106 356.845C412.801 356.916 412.483 356.953 412.157 356.953L384.809 356.841H382.599C380.426 356.841 378.591 355.12 378.478 352.95C378.216 348.572 377.879 342.81 377.467 336.15C376.343 319.35 375.743 313.999 375.069 301.053C374.957 298.883 374.844 296.937 374.769 295.104C374.47 286.386 373.683 278.229 372.147 267.565C371.285 261.653 370.873 257.986 370.836 254.881C370.798 252 371.66 249.156 373.308 246.799C374.132 245.639 375.069 244.629 376.193 243.768C379.078 241.56 381.144 240.059 388.381 239.952C394.162 239.866 400.859 239.893 407.978 239.927L407.978 239.927Z" fill="#444444"/>
<path d="M439.018 283.7C438.554 283.244 438.069 282.766 437.563 282.266C437.426 282.131 437.426 282.131 437.289 281.995C435.862 280.582 434.694 279.418 432.429 277.157C432.136 276.864 431.662 276.864 431.369 277.157C431.077 277.449 431.077 277.923 431.369 278.215C433.635 280.478 434.805 281.643 436.234 283.058C436.372 283.194 436.372 283.194 436.509 283.33C437.016 283.831 437.502 284.31 437.967 284.767C438.262 285.057 438.737 285.053 439.027 284.759C439.317 284.464 439.313 283.99 439.018 283.7Z" fill="#482D1F"/>
<path d="M488.199 162.315C490.405 161.567 492.809 161.215 495.305 161.348C505.233 161.834 512.876 169.729 512.388 178.971C512.149 183.489 509.997 187.494 506.697 190.338L514.993 220.626C516.266 225.415 515.817 230.279 513.944 234.47C513.681 235.069 513.382 235.667 513.082 236.228C512.745 236.827 512.37 237.426 511.996 237.987C511.584 238.586 511.134 239.184 510.647 239.746H469.85C469.512 239.184 469.175 238.623 468.876 237.987C468.576 237.426 468.314 236.827 468.089 236.228C467.864 235.667 467.677 235.069 467.489 234.47C467.452 234.358 467.415 234.245 467.377 234.133L456.771 197.209L449.031 198.061C448.357 198.135 447.72 197.686 447.645 197.05L447.308 194.431C447.294 194.314 447.299 194.199 447.321 194.09C446.049 193.318 444.884 192.392 443.899 191.326C442.475 189.792 441.389 187.996 440.752 185.938C438.204 177.781 443.861 169.063 453.377 166.518C457.207 165.494 461.086 165.616 464.519 166.659C465.975 165.648 467.57 164.871 469.288 164.388L477.492 161.956C481.27 161.397 484.903 161.527 488.199 162.315Z" fill="#FF5645"/>
<path opacity="0.176986" d="M456.715 197.214L449.031 198.059C448.357 198.134 447.72 197.685 447.645 197.049L447.308 194.429C447.294 194.312 447.299 194.198 447.321 194.088C446.049 193.316 444.884 192.39 443.899 191.324C442.475 189.79 441.389 187.994 440.752 185.936C438.204 177.779 443.861 169.061 453.377 166.517C457.228 165.487 461.129 165.616 464.576 166.674C456.825 171.98 452.98 183.874 455.541 193.129L456.715 197.214Z" fill="#444444"/>
<path d="M450.219 168.168C450.219 168.168 449.507 171.012 453.291 170.226C457.075 169.44 458.161 169.066 458.161 169.066L457.187 166.484L450.219 168.168Z" fill="#482D1F"/>
<path d="M463.264 160.739C463.14 160.772 463.018 160.803 462.897 160.832L463.281 160.777L463.264 160.739ZM473.291 154.702L474.233 154.323L478.766 162.143L471.293 164.481L478.616 199.223C478.616 199.223 479.238 196.716 480.035 192.194C480.073 192.207 480.112 192.217 480.152 192.226L500.869 196.828C500.956 196.848 501.044 196.858 501.13 196.859C500.405 199.749 499.632 203.224 498.808 206.819C496.673 216.098 496.336 220.401 492.927 226.537C489.031 233.534 485.434 233.721 484.011 234.245C480.826 235.48 477.642 235.293 475.656 234.806C473.274 234.23 468.91 233.302 465.207 226.578L467.377 234.133C467.414 234.245 467.452 234.357 467.489 234.47C467.677 235.068 467.864 235.667 468.089 236.228C468.313 236.827 468.576 237.426 468.875 237.987C469.175 238.623 469.512 239.184 469.849 239.745H474.648L412.471 239.824C412.296 239.824 412.136 239.765 412.009 239.665C401.696 233.442 396.589 228.691 396.686 225.413C399.805 224.939 404.257 224.288 410.042 223.46C413.636 222.946 417.286 222.957 420.877 223.491L432.169 225.173C440.617 222.468 451.891 218.916 454.705 218.304L449.871 197.968L456.771 197.209L460.015 208.502C458.12 195.13 458.61 181.197 456.897 167.782L452.954 167.868C450.631 168.803 445.761 170.375 445.236 167.045C445.236 167.045 451.68 164.388 456.213 162.443L456.55 162.143C456.85 161.881 457.112 161.732 457.487 161.619C457.562 161.582 457.636 161.582 457.711 161.582L459.51 161.32L459.761 161.284C459.164 161.313 458.748 161.298 458.598 161.283C455.468 161.058 451.817 155.333 450.178 147.064C450.029 146.391 449.992 145.717 449.917 145.044L449.619 138.346C449.545 136.85 449.843 135.353 450.551 134.043C450.849 133.482 451.147 132.958 451.482 132.547C455.319 127.383 462.398 127.944 463.665 128.094C463.814 128.094 463.963 128.131 464.112 128.131C465.527 128.468 466.794 128.58 468.135 128.543C468.731 128.543 469.216 129.029 469.253 129.628L469.439 139.207C469.476 140.105 474.022 138.384 474.022 138.346C476.203 136.7 478.939 145.568 477.822 146.877C477.002 147.775 474.692 149.047 474.022 149.272C473.612 149.422 473.314 149.758 473.239 150.132C473.495 152.027 473.512 153.551 473.291 154.702Z" fill="#DB9E75"/>
<path opacity="0.2" d="M449.871 198.001L456.77 197.242L467.376 234.166C467.414 234.278 467.451 234.39 467.489 234.503C467.676 235.101 467.863 235.7 468.088 236.261C468.313 236.86 468.575 237.459 468.875 238.02C469.174 238.656 469.512 239.217 469.849 239.778H474.648L412.47 239.857C412.296 239.857 412.135 239.798 412.008 239.699C401.696 233.475 396.588 228.724 396.685 225.446C399.805 224.972 404.256 224.321 410.041 223.494C413.635 222.979 417.285 222.99 420.876 223.525L432.168 225.206C440.616 222.501 451.89 218.949 454.705 218.337L449.871 198.001Z" fill="#8C2A00"/>
<path d="M394.991 230.525C399.011 225.583 407.287 221.581 421.139 230.799C423.251 232.157 422.536 236.611 420.213 236.661L396.263 237.064C394.463 237.124 393.65 232.188 394.991 230.525Z" fill="#474961"/>
<path d="M484.8 137.088C489.605 140.239 494.193 144.87 493.376 147.927C492.739 150.396 490.342 151.706 487.907 153.053C485.94 154.13 482.308 155.797 477.079 156.147C477.079 156.151 477.08 156.155 477.08 156.158C475.844 156.346 474.645 156.533 473.408 156.72C472.772 156.795 472.172 156.346 472.135 155.709C472.322 154.362 472.509 153.015 472.697 151.668C472.865 150.996 473.042 150.148 473.15 149.238C473.748 149.094 475.082 148.708 476.106 147.515C477.23 146.206 477.829 144.223 477.08 142.314C476.406 140.481 474.532 139.059 472.734 139.209C471.723 139.284 470.936 139.845 470.824 139.92C470.011 140.534 469.334 141.376 468.966 141.88C467.203 141.197 464.467 139.737 462.207 136.851C461.683 136.203 461.071 135.243 460.371 133.97C456.64 134.816 453.505 134.604 450.968 133.334C451.522 132.281 452.386 131.327 453.559 130.475C455.32 129.197 455.514 129.042 457.735 128.419C459.125 128.029 461.755 127.905 463.636 128.096H463.706C465.841 128.32 467.602 128.395 468.763 128.395C474.457 128.508 476.668 127.759 479.552 129.181C480.077 129.443 481.313 130.116 482.4 131.389C483.939 133.186 484.57 135.267 484.8 137.088ZM450.865 149.955C452.283 155.009 453.79 156.869 453.598 156.869C453.406 156.869 452.907 157.131 449.049 156.046C447.138 155.522 445.34 154.999 444.516 153.464C443.354 151.294 446.815 146.811 449.887 143.817C449.887 146.033 450.254 147.704 450.865 149.955ZM448.608 142.539C448.233 142.464 448.083 142.015 448.346 141.753C448.683 141.454 449.245 141.08 449.994 141.042C451.53 140.967 453.216 141.865 451.567 142.389C450.519 142.763 449.32 142.651 448.608 142.539ZM455.876 142.539C455.501 142.464 455.351 142.015 455.651 141.753C455.988 141.454 456.55 141.08 457.337 141.042C458.873 140.967 460.559 141.903 458.91 142.389C457.786 142.763 456.625 142.651 455.876 142.539Z" fill="#482D1F"/>
<path d="M451.418 145.416C451.493 146.053 451.568 147.1 451.23 147.549C450.743 148.223 449.582 146.502 449.844 145.304C449.957 144.78 450.219 144.631 450.519 144.631C450.968 144.631 451.343 144.968 451.418 145.416ZM458.086 145.192C458.199 145.828 458.273 146.876 457.899 147.325C457.412 147.998 456.25 146.277 456.513 145.08C456.625 144.556 456.887 144.406 457.187 144.406C457.637 144.406 458.011 144.743 458.086 145.192Z" fill="#482D1F"/>
<path d="M478.189 199.419C478.101 199.121 478.271 198.809 478.569 198.721C478.866 198.634 479.179 198.803 479.267 199.101L482.976 211.635C483.064 211.932 482.894 212.245 482.596 212.332C482.299 212.42 481.986 212.251 481.898 211.953L478.189 199.419ZM503.561 192.969C503.57 193.035 503.568 193.104 503.552 193.173L502.916 195.976C502.699 196.952 501.725 197.555 500.747 197.338C500.444 197.271 500.253 196.971 500.32 196.668C500.387 196.366 500.688 196.175 500.991 196.242C501.369 196.326 501.738 196.097 501.819 195.731L502.366 193.32C502.266 193.267 502.181 193.184 502.127 193.075C501.988 192.798 502.101 192.461 502.378 192.322C503.978 191.523 505.466 190.471 506.734 189.241C506.956 189.025 507.312 189.03 507.528 189.252C507.744 189.475 507.739 189.83 507.517 190.046C506.348 191.18 505.005 192.171 503.561 192.969ZM480.412 187.971C480.41 187.996 480.406 188.021 480.4 188.046L479.764 190.85C479.68 191.228 479.909 191.596 480.274 191.677C480.576 191.745 480.768 192.044 480.7 192.347C480.633 192.65 480.333 192.84 480.03 192.773C479.053 192.556 478.449 191.584 478.667 190.605L479.304 187.798C479.329 187.69 479.383 187.595 479.457 187.523C479.016 186.989 478.683 186.521 478.406 186.046C478.156 185.619 477.948 185.182 477.727 184.636C477.576 184.263 477.483 184.013 477.151 183.1C477.045 182.809 477.195 182.487 477.487 182.381C477.779 182.275 478.101 182.425 478.207 182.717C478.534 183.615 478.625 183.86 478.769 184.215C478.971 184.715 479.157 185.105 479.376 185.48C479.67 185.983 480.04 186.486 480.577 187.107C480.78 187.341 480.754 187.696 480.519 187.898C480.485 187.927 480.449 187.951 480.412 187.971ZM465.873 160.09C464.487 160.726 463.545 161.851 461.383 162.067C459.659 162.479 458.198 161.993 457.449 161.618C457.524 161.581 457.599 161.581 457.674 161.581L459.472 161.319C460.334 161.319 461.718 161.169 463.329 160.72L465.873 160.09Z" fill="#482D1F"/>
<path d="M456.175 152.75C456.437 152.675 457.074 152.451 457.187 152.039C457.187 151.964 457.224 151.852 457.187 151.777C457.037 151.553 456.55 151.665 455.875 151.74C454.677 151.852 453.703 151.74 453.703 151.74C453.703 151.74 454.002 152.488 454.19 152.675C454.602 153.274 455.801 152.9 456.175 152.75Z" fill="#482D1F"/>
<path d="M453.366 145.731L453.368 145.677L453.365 145.704L453.366 145.731ZM452.918 149.68L452.916 149.722C452.916 150.13 453.196 150.51 453.604 150.578C453.679 150.585 453.72 150.588 453.762 150.59C454.158 150.616 454.443 150.62 455.464 150.62C455.67 150.62 455.838 150.453 455.838 150.246C455.838 150.039 455.67 149.872 455.464 149.872C454.461 149.872 454.184 149.868 453.811 149.844C453.772 149.841 453.733 149.838 453.694 149.835C453.702 149.835 453.671 149.792 453.666 149.737L454.113 145.76L454.115 145.706L454.04 143.498C454.033 143.292 453.859 143.13 453.653 143.137C453.446 143.144 453.284 143.317 453.291 143.524L453.365 145.704L452.918 149.68Z" fill="#482D1F"/>
<path d="M514.693 234.656H36.2887C34.8404 234.656 33.6663 235.829 33.6663 237.275C33.6663 238.722 34.8404 239.895 36.2887 239.895H514.693C516.141 239.895 517.315 238.722 517.315 237.275C517.315 235.829 516.141 234.656 514.693 234.656Z" fill="#D8DEED"/>
<path d="M333.849 229.047L337.452 214.529H310.407C307.597 214.529 305.274 212.396 305.274 209.814V168.693C305.237 166.074 307.522 163.941 310.37 163.941H392.676C395.486 163.941 397.809 166.074 397.809 168.656V209.814C397.809 212.396 395.486 214.529 392.676 214.529H359.718L358.23 229.047H367.988C369.487 229.047 370.648 230.245 370.648 231.704C370.648 233.2 369.449 234.36 367.988 234.36H326.217C324.718 234.36 323.557 233.163 323.557 231.704C323.482 230.245 324.718 229.047 326.217 229.047H333.849Z" fill="#474961"/>
<path fill-rule="evenodd" clip-rule="evenodd" d="M360.834 203.945L360.945 229.083H358.259L360.834 203.945Z" fill="white"/>
<path d="M323.631 7.16406H200.377C196.239 7.16406 192.885 10.5145 192.885 14.6474V105.57C192.885 109.703 196.239 113.053 200.377 113.053H323.631C327.769 113.053 331.124 109.703 331.124 105.57V14.6474C331.124 10.5145 327.769 7.16406 323.631 7.16406Z" fill="#F2F6FB"/>
<path d="M275.033 86.9626C288.42 79.2449 293.021 62.1778 285.311 48.8423C277.601 35.5067 260.499 30.9526 247.113 38.6703C233.726 46.3881 229.125 63.4551 236.835 76.7907C244.545 90.1262 261.647 94.6804 275.033 86.9626ZM270.559 79.2237C261.452 84.4745 249.826 81.3786 244.589 72.3203C239.352 63.2621 242.48 51.6599 251.587 46.4092C260.694 41.1585 272.32 44.2544 277.557 53.3126C282.795 62.3709 279.666 73.973 270.559 79.2237Z" fill="#E1E5F0"/>
<path d="M244.875 34.8023C229.35 43.7536 224.011 63.5531 232.958 79.0273C241.905 94.5015 261.745 99.7848 277.271 90.8335C292.796 81.8823 298.135 62.0828 289.188 46.6085L281.434 51.0789C287.908 62.2758 284.043 76.6104 272.796 83.0946C261.549 89.5789 247.185 85.7538 240.712 74.5569C234.238 63.3601 238.103 49.0254 249.35 42.5412L244.875 34.8023Z" fill="#474BFF"/>
<path d="M244.64 33.5478C228.692 42.743 223.208 63.0829 232.399 78.98C241.59 94.8771 261.971 100.305 277.92 91.1094L272.558 81.8359C261.737 88.0748 247.918 84.3948 241.69 73.6232C235.462 62.8516 239.181 49.0603 250.002 42.8214L244.64 33.5478Z" fill="#D8DEED"/>
<path d="M192.885 13.1527C192.885 9.84525 195.569 7.16406 198.88 7.16406H325.128C328.439 7.16406 331.124 9.84452 331.124 13.1527V19.1412H192.885V13.1527Z" fill="#E1E5F0"/>
<path d="M200.928 15.8751C202.359 15.8751 203.518 14.7173 203.518 13.2891C203.518 11.8609 202.359 10.7031 200.928 10.7031C199.498 10.7031 198.338 11.8609 198.338 13.2891C198.338 14.7173 199.498 15.8751 200.928 15.8751Z" fill="#FF5645"/>
<path d="M209.381 15.8751C210.811 15.8751 211.971 14.7173 211.971 13.2891C211.971 11.8609 210.811 10.7031 209.381 10.7031C207.95 10.7031 206.791 11.8609 206.791 13.2891C206.791 14.7173 207.95 15.8751 209.381 15.8751Z" fill="#FFCB3D"/>
<path d="M218.106 15.8751C219.537 15.8751 220.696 14.7173 220.696 13.2891C220.696 11.8609 219.537 10.7031 218.106 10.7031C216.676 10.7031 215.516 11.8609 215.516 13.2891C215.516 14.7173 216.676 15.8751 218.106 15.8751Z" fill="#3ABF7C"/>
</svg>
