<svg width="212" height="63" viewBox="0 0 212 63" fill="none" xmlns="http://www.w3.org/2000/svg">
<g filter="url(#filter0_i_3743_21138)">
<rect x="3" y="3" width="206" height="57" rx="28.5" fill="#388DE1"/>
</g>
<rect x="1.5" y="1.5" width="209" height="60" rx="30" stroke="#388DE1" stroke-width="3"/>
<path d="M81.2695 21.3398C82.8867 21.3398 84.2852 21.6523 85.4648 22.2773C87.1758 23.1758 88.2227 24.75 88.6055 27H86.2969C86.0156 25.7422 85.4336 24.8281 84.5508 24.2578C83.668 23.6797 82.5547 23.3906 81.2109 23.3906C79.6172 23.3906 78.2734 23.9883 77.1797 25.1836C76.0938 26.3789 75.5508 28.1602 75.5508 30.5273C75.5508 32.5742 76 34.2422 76.8984 35.5312C77.7969 36.8125 79.2617 37.4531 81.293 37.4531C82.8477 37.4531 84.1328 37.0039 85.1484 36.1055C86.1719 35.1992 86.6953 33.7383 86.7188 31.7227H81.3281V29.7891H88.8867V39H87.3867L86.8242 36.7852C86.0352 37.6523 85.3359 38.2539 84.7266 38.5898C83.7031 39.168 82.4023 39.457 80.8242 39.457C78.7852 39.457 77.0312 38.7969 75.5625 37.4766C73.9609 35.8203 73.1602 33.5469 73.1602 30.6562C73.1602 27.7734 73.9414 25.4805 75.5039 23.7773C76.9883 22.1523 78.9102 21.3398 81.2695 21.3398ZM97.207 37.6406C98.6055 37.6406 99.5625 37.1133 100.078 36.0586C100.602 34.9961 100.863 33.8164 100.863 32.5195C100.863 31.3477 100.676 30.3945 100.301 29.6602C99.707 28.5039 98.6836 27.9258 97.2305 27.9258C95.9414 27.9258 95.0039 28.418 94.418 29.4023C93.832 30.3867 93.5391 31.5742 93.5391 32.9648C93.5391 34.3008 93.832 35.4141 94.418 36.3047C95.0039 37.1953 95.9336 37.6406 97.207 37.6406ZM97.2891 26.0859C98.9062 26.0859 100.273 26.625 101.391 27.7031C102.508 28.7812 103.066 30.3672 103.066 32.4609C103.066 34.4844 102.574 36.1562 101.59 37.4766C100.605 38.7969 99.0781 39.457 97.0078 39.457C95.2812 39.457 93.9102 38.875 92.8945 37.7109C91.8789 36.5391 91.3711 34.9688 91.3711 33C91.3711 30.8906 91.9062 29.2109 92.9766 27.9609C94.0469 26.7109 95.4844 26.0859 97.2891 26.0859ZM112.605 21.7852H114.961V28.8984H123.914V21.7852H126.27V39H123.914V30.9492H114.961V39H112.605V21.7852ZM134.59 37.6406C135.988 37.6406 136.945 37.1133 137.461 36.0586C137.984 34.9961 138.246 33.8164 138.246 32.5195C138.246 31.3477 138.059 30.3945 137.684 29.6602C137.09 28.5039 136.066 27.9258 134.613 27.9258C133.324 27.9258 132.387 28.418 131.801 29.4023C131.215 30.3867 130.922 31.5742 130.922 32.9648C130.922 34.3008 131.215 35.4141 131.801 36.3047C132.387 37.1953 133.316 37.6406 134.59 37.6406ZM134.672 26.0859C136.289 26.0859 137.656 26.625 138.773 27.7031C139.891 28.7812 140.449 30.3672 140.449 32.4609C140.449 34.4844 139.957 36.1562 138.973 37.4766C137.988 38.7969 136.461 39.457 134.391 39.457C132.664 39.457 131.293 38.875 130.277 37.7109C129.262 36.5391 128.754 34.9688 128.754 33C128.754 30.8906 129.289 29.2109 130.359 27.9609C131.43 26.7109 132.867 26.0859 134.672 26.0859ZM142.969 26.4492H145.055V28.2305C145.555 27.6133 146.008 27.1641 146.414 26.8828C147.109 26.4062 147.898 26.168 148.781 26.168C149.781 26.168 150.586 26.4141 151.195 26.9062C151.539 27.1875 151.852 27.6016 152.133 28.1484C152.602 27.4766 153.152 26.9805 153.785 26.6602C154.418 26.332 155.129 26.168 155.918 26.168C157.605 26.168 158.754 26.7773 159.363 27.9961C159.691 28.6523 159.855 29.5352 159.855 30.6445V39H157.664V30.2812C157.664 29.4453 157.453 28.8711 157.031 28.5586C156.617 28.2461 156.109 28.0898 155.508 28.0898C154.68 28.0898 153.965 28.3672 153.363 28.9219C152.77 29.4766 152.473 30.4023 152.473 31.6992V39H150.328V30.8086C150.328 29.957 150.227 29.3359 150.023 28.9453C149.703 28.3594 149.105 28.0664 148.23 28.0664C147.434 28.0664 146.707 28.375 146.051 28.9922C145.402 29.6094 145.078 30.7266 145.078 32.3438V39H142.969V26.4492ZM168.188 26.168C169.078 26.168 169.941 26.3789 170.777 26.8008C171.613 27.2148 172.25 27.7539 172.688 28.418C173.109 29.0508 173.391 29.7891 173.531 30.6328C173.656 31.2109 173.719 32.1328 173.719 33.3984H164.52C164.559 34.6719 164.859 35.6953 165.422 36.4688C165.984 37.2344 166.855 37.6172 168.035 37.6172C169.137 37.6172 170.016 37.2539 170.672 36.5273C171.047 36.1055 171.312 35.6172 171.469 35.0625H173.543C173.488 35.5234 173.305 36.0391 172.992 36.6094C172.688 37.1719 172.344 37.6328 171.961 37.9922C171.32 38.6172 170.527 39.0391 169.582 39.2578C169.074 39.3828 168.5 39.4453 167.859 39.4453C166.297 39.4453 164.973 38.8789 163.887 37.7461C162.801 36.6055 162.258 35.0117 162.258 32.9648C162.258 30.9492 162.805 29.3125 163.898 28.0547C164.992 26.7969 166.422 26.168 168.188 26.168ZM171.551 31.7227C171.465 30.8086 171.266 30.0781 170.953 29.5312C170.375 28.5156 169.41 28.0078 168.059 28.0078C167.09 28.0078 166.277 28.3594 165.621 29.0625C164.965 29.7578 164.617 30.6445 164.578 31.7227H171.551Z" fill="#F3F4F6"/>
<path d="M35.1975 27.9454L53.6427 27.9454C55.9396 27.9454 57.8017 29.8074 57.8017 32.1044L57.8017 33.63C57.8017 35.927 55.9396 37.7891 53.6426 37.7891L39.2079 37.7891" stroke="#F3F4F6" stroke-width="2.08134" stroke-linejoin="round"/>
<path d="M38.8437 23.5703C37.1352 25.2789 36.1773 26.2368 34.4688 27.9453L38.8438 32.3203" stroke="#F3F4F6" stroke-width="2.08134" stroke-linejoin="round"/>
<defs>
<filter id="filter0_i_3743_21138" x="0" y="0" width="212" height="63" filterUnits="userSpaceOnUse" color-interpolation-filters="sRGB">
<feFlood flood-opacity="0" result="BackgroundImageFix"/>
<feBlend mode="normal" in="SourceGraphic" in2="BackgroundImageFix" result="shape"/>
<feColorMatrix in="SourceAlpha" type="matrix" values="0 0 0 0 0 0 0 0 0 0 0 0 0 0 0 0 0 0 127 0" result="hardAlpha"/>
<feMorphology radius="7" operator="erode" in="SourceAlpha" result="effect1_innerShadow_3743_21138"/>
<feOffset/>
<feComposite in2="hardAlpha" operator="arithmetic" k2="-1" k3="1"/>
<feColorMatrix type="matrix" values="0 0 0 0 1 0 0 0 0 1 0 0 0 0 1 0 0 0 1 0"/>
<feBlend mode="normal" in2="shape" result="effect1_innerShadow_3743_21138"/>
</filter>
</defs>
</svg>
